<svg width="16" height="16" viewBox="0 0 16 16" fill="none" xmlns="http://www.w3.org/2000/svg">
<path d="M1.73878 15.4784C1.62805 15.4782 1.51857 15.455 1.41731 15.4102C1.31604 15.3654 1.22521 15.3 1.15057 15.2182C1.07459 15.1371 1.01661 15.0409 0.98044 14.9358C0.944266 14.8307 0.930714 14.7192 0.940672 14.6085L1.13621 12.4584L10.1692 3.42862L12.9921 6.25072L3.9615 15.2797L1.81141 15.4752C1.78726 15.4775 1.76302 15.4785 1.73878 15.4784V15.4784ZM13.5555 5.68646L10.7334 2.86436L12.4262 1.17157C12.5003 1.09737 12.5884 1.0385 12.6853 0.998337C12.7821 0.958173 12.886 0.9375 12.9909 0.9375C13.0958 0.9375 13.1996 0.958173 13.2965 0.998337C13.3934 1.0385 13.4814 1.09737 13.5555 1.17157L15.2483 2.86436C15.3225 2.93848 15.3814 3.0265 15.4216 3.12339C15.4617 3.22028 15.4824 3.32413 15.4824 3.42902C15.4824 3.5339 15.4617 3.63776 15.4216 3.73465C15.3814 3.83153 15.3225 3.91956 15.2483 3.99368L13.5563 5.68566L13.5555 5.68646V5.68646Z" fill="white"/>
</svg>
