<svg width="33" height="33" viewBox="0 0 33 33" fill="none" xmlns="http://www.w3.org/2000/svg">
<circle cx="16.5" cy="16.5" r="16.5" fill="#00AB07"/>
<path d="M9.73878 23.4784C9.62805 23.4782 9.51857 23.455 9.41731 23.4102C9.31604 23.3654 9.22521 23.3 9.15057 23.2182C9.07459 23.1371 9.01661 23.0409 8.98044 22.9358C8.94427 22.8307 8.93071 22.7192 8.94067 22.6085L9.13621 20.4584L18.1692 11.4286L20.9921 14.2507L11.9615 23.2797L9.81141 23.4752C9.78726 23.4775 9.76302 23.4785 9.73878 23.4784ZM21.5555 13.6865L18.7334 10.8644L20.4262 9.17157C20.5003 9.09737 20.5884 9.0385 20.6853 8.99834C20.7821 8.95817 20.886 8.9375 20.9909 8.9375C21.0958 8.9375 21.1996 8.95817 21.2965 8.99834C21.3934 9.0385 21.4814 9.09737 21.5555 9.17157L23.2483 10.8644C23.3225 10.9385 23.3814 11.0265 23.4216 11.1234C23.4617 11.2203 23.4824 11.3241 23.4824 11.429C23.4824 11.5339 23.4617 11.6378 23.4216 11.7346C23.3814 11.8315 23.3225 11.9196 23.2483 11.9937L21.5563 13.6857L21.5555 13.6865Z" fill="white"/>
</svg>
