<svg width="27" height="27" viewBox="0 0 27 27" fill="none" xmlns="http://www.w3.org/2000/svg">
<path d="M25.92 0H1.08C0.482625 0 0 0.482625 0 1.08V25.92C0 26.5174 0.482625 27 1.08 27H25.92C26.5174 27 27 26.5174 27 25.92V1.08C27 0.482625 26.5174 0 25.92 0ZM24.84 24.84H18.6266V16.5443H22.1366L22.6631 12.4706H18.6266V9.8685C18.6266 8.68725 18.954 7.884 20.6449 7.884H22.8015V4.239C22.4269 4.18838 21.1478 4.077 19.656 4.077C16.5443 4.077 14.4146 5.97712 14.4146 9.4635V12.4672H10.8979V16.5409H14.418V24.84H2.16V2.16H24.84V24.84Z" fill="black"/>
</svg>
