<svg width="26" height="26" viewBox="0 0 26 26" fill="none" xmlns="http://www.w3.org/2000/svg">
<path d="M15.7754 9.87187L10.8614 10.4877L10.6859 11.3035L11.6528 11.479C12.2817 11.6301 12.4068 11.856 12.2703 12.4849L10.6859 19.9225C10.2715 21.8449 10.9134 22.75 12.4198 22.75C13.5898 22.75 14.945 22.2105 15.5609 21.4679L15.7494 20.5757C15.322 20.9527 14.6932 21.1039 14.2788 21.1039C13.6889 21.1039 13.476 20.6895 13.6255 19.9599L15.7754 9.87187V9.87187ZM15.9233 5.395C15.9233 5.96389 15.6973 6.50948 15.295 6.91174C14.8928 7.31401 14.3472 7.54 13.7783 7.54C13.2094 7.54 12.6638 7.31401 12.2615 6.91174C11.8593 6.50948 11.6333 5.96389 11.6333 5.395C11.6333 4.82611 11.8593 4.28052 12.2615 3.87826C12.6638 3.47599 13.2094 3.25 13.7783 3.25C14.3472 3.25 14.8928 3.47599 15.295 3.87826C15.6973 4.28052 15.9233 4.82611 15.9233 5.395V5.395Z" fill="white"/>
</svg>
