<svg width="27" height="27" viewBox="0 0 27 27" fill="none" xmlns="http://www.w3.org/2000/svg">
<path d="M24.8299 0H2.17013C0.972 0 0 0.972 0 2.17013V24.8299C0 26.028 0.972 27 2.17013 27H24.8299C26.028 27 27 26.028 27 24.8299V2.17013C27 0.972 26.028 0 24.8299 0ZM24.8299 24.84C9.71663 24.8366 2.16 24.8333 2.16 24.8299C2.16338 9.71663 2.16675 2.16 2.17013 2.16C17.2834 2.16338 24.84 2.16675 24.84 2.17013C24.8366 17.2834 24.8333 24.84 24.8299 24.84ZM4.00275 10.1216H8.00887V23.0074H4.00275V10.1216ZM6.0075 8.35988C7.28663 8.35988 8.3295 7.32037 8.3295 6.03788C8.3295 5.73295 8.26944 5.431 8.15275 5.14928C8.03606 4.86757 7.86502 4.61159 7.6494 4.39597C7.43378 4.18036 7.17781 4.00932 6.89609 3.89263C6.61437 3.77594 6.31243 3.71588 6.0075 3.71588C5.70257 3.71588 5.40063 3.77594 5.11891 3.89263C4.83719 4.00932 4.58122 4.18036 4.3656 4.39597C4.14998 4.61159 3.97894 4.86757 3.86225 5.14928C3.74556 5.431 3.6855 5.73295 3.6855 6.03788C3.68213 7.32037 4.72163 8.35988 6.0075 8.35988ZM14.5226 16.632C14.5226 14.9513 14.8433 13.3245 16.9256 13.3245C18.9776 13.3245 19.008 15.2449 19.008 16.74V23.0074H23.0107V15.9401C23.0107 12.4706 22.2615 9.801 18.2081 9.801C16.2607 9.801 14.9546 10.8709 14.418 11.8834H14.364V10.1216H10.5199V23.0074H14.5226V16.632Z" fill="black"/>
</svg>
