<svg width="286" height="326" viewBox="0 0 286 326" fill="none" xmlns="http://www.w3.org/2000/svg">
<g clip-path="url(#clip0_906_389)">
<path d="M268.862 91.8822L188.226 91.8822C186.693 91.8822 185.223 91.2724 184.139 90.1868C183.055 89.1013 182.447 87.629 182.447 86.0938V27.2962C182.447 25.7618 183.055 24.2902 184.138 23.2051C185.222 22.1201 186.691 21.5106 188.223 21.5106L268.864 21.5106C270.396 21.5106 271.866 22.1201 272.949 23.2051C274.032 24.2902 274.641 25.7618 274.641 27.2962V86.0938C274.641 87.629 274.032 89.1013 272.948 90.1868C271.864 91.2724 270.394 91.8822 268.862 91.8822Z" fill="white"/>
<path d="M182.205 86.0934V27.2958C182.205 25.6972 182.839 24.1641 183.968 23.0337C185.096 21.9033 186.627 21.2683 188.223 21.2683H268.864C270.46 21.2683 271.991 21.9033 273.119 23.0337C274.248 24.1641 274.882 25.6972 274.882 27.2958V86.0934C274.882 86.8853 274.726 87.6695 274.424 88.4011C274.121 89.1327 273.678 89.7975 273.119 90.3574C272.56 90.9174 271.896 91.3616 271.166 91.6646C270.435 91.9677 269.652 92.1236 268.862 92.1236H188.225C187.435 92.1236 186.652 91.9677 185.922 91.6646C185.191 91.3616 184.527 90.9174 183.968 90.3574C183.409 89.7975 182.966 89.1327 182.663 88.4011C182.361 87.6695 182.205 86.8853 182.205 86.0934ZM188.223 21.752C186.755 21.7524 185.348 22.3367 184.31 23.3763C183.272 24.4159 182.69 25.8258 182.69 27.2958V86.0934C182.69 87.5645 183.273 88.9752 184.311 90.0154C185.35 91.0556 186.758 91.6399 188.227 91.6399H268.862C270.33 91.6399 271.739 91.0556 272.777 90.0154C273.816 88.9752 274.399 87.5645 274.399 86.0934V27.2958C274.399 25.8255 273.816 24.4154 272.778 23.3757C271.74 22.3361 270.332 21.752 268.864 21.752H188.223Z" fill="#292A2E"/>
<path d="M182.447 27.2951V32.1942H274.64V27.2951C274.64 25.7606 274.031 24.289 272.948 23.204C271.865 22.119 270.396 21.5094 268.864 21.5094H188.223C187.465 21.5094 186.713 21.6591 186.013 21.9498C185.312 22.2406 184.675 22.6667 184.139 23.204C183.602 23.7413 183.177 24.3791 182.887 25.081C182.597 25.783 182.447 26.5353 182.447 27.2951Z" fill="#292A2E"/>
<path d="M213.932 40.1135H209.582C209.531 40.1135 209.481 40.0931 209.445 40.0568C209.409 40.0206 209.389 39.9713 209.389 39.92C209.389 39.8687 209.409 39.8195 209.445 39.7832C209.481 39.7469 209.531 39.7266 209.582 39.7266H213.932C213.983 39.7266 214.033 39.7469 214.069 39.7832C214.105 39.8195 214.125 39.8687 214.125 39.92C214.125 39.9713 214.105 40.0206 214.069 40.0568C214.033 40.0931 213.983 40.1135 213.932 40.1135Z" fill="#292A2E"/>
<path d="M206.445 40.1135H204.799C204.747 40.1135 204.698 40.0931 204.662 40.0568C204.626 40.0206 204.605 39.9713 204.605 39.92C204.605 39.8687 204.626 39.8195 204.662 39.7832C204.698 39.7469 204.747 39.7266 204.799 39.7266H206.445C206.496 39.7266 206.545 39.7469 206.581 39.7832C206.618 39.8195 206.638 39.8687 206.638 39.92C206.638 39.9713 206.618 40.0206 206.581 40.0568C206.545 40.0931 206.496 40.1135 206.445 40.1135Z" fill="#00AB07"/>
<path d="M206.445 43.6037H204.799C204.747 43.6037 204.698 43.5834 204.662 43.5471C204.626 43.5108 204.605 43.4616 204.605 43.4103C204.605 43.359 204.626 43.3097 204.662 43.2735C204.698 43.2372 204.747 43.2168 204.799 43.2168H206.445C206.496 43.2168 206.545 43.2372 206.581 43.2735C206.618 43.3097 206.638 43.359 206.638 43.4103C206.638 43.4616 206.618 43.5108 206.581 43.5471C206.545 43.5834 206.496 43.6037 206.445 43.6037Z" fill="#00AB07"/>
<path d="M206.445 47.0941H204.799C204.747 47.0941 204.698 47.0737 204.662 47.0374C204.626 47.0011 204.605 46.9519 204.605 46.9006C204.605 46.8493 204.626 46.8001 204.662 46.7638C204.698 46.7275 204.747 46.7072 204.799 46.7072H206.445C206.496 46.7072 206.545 46.7275 206.581 46.7638C206.618 46.8001 206.638 46.8493 206.638 46.9006C206.638 46.9519 206.618 47.0011 206.581 47.0374C206.545 47.0737 206.496 47.0941 206.445 47.0941Z" fill="#00AB07"/>
<path d="M206.445 50.5843H204.799C204.747 50.5843 204.698 50.564 204.662 50.5277C204.626 50.4914 204.605 50.4422 204.605 50.3909C204.605 50.3396 204.626 50.2903 204.662 50.2541C204.698 50.2178 204.747 50.1974 204.799 50.1974H206.445C206.496 50.1974 206.545 50.2178 206.581 50.2541C206.618 50.2903 206.638 50.3396 206.638 50.3909C206.638 50.4422 206.618 50.4914 206.581 50.5277C206.545 50.564 206.496 50.5843 206.445 50.5843Z" fill="#00AB07"/>
<path d="M206.445 54.0746H204.799C204.747 54.0746 204.698 54.0542 204.662 54.0179C204.626 53.9816 204.605 53.9324 204.605 53.8811C204.605 53.8298 204.626 53.7806 204.662 53.7443C204.698 53.708 204.747 53.6876 204.799 53.6876H206.445C206.496 53.6876 206.545 53.708 206.581 53.7443C206.618 53.7806 206.638 53.8298 206.638 53.8811C206.638 53.9324 206.618 53.9816 206.581 54.0179C206.545 54.0542 206.496 54.0746 206.445 54.0746Z" fill="#00AB07"/>
<path d="M206.445 57.5649H204.799C204.747 57.5649 204.698 57.5445 204.662 57.5083C204.626 57.472 204.605 57.4228 204.605 57.3715C204.605 57.3201 204.626 57.2709 204.662 57.2346C204.698 57.1984 204.747 57.178 204.799 57.178H206.445C206.496 57.178 206.545 57.1984 206.581 57.2346C206.618 57.2709 206.638 57.3201 206.638 57.3715C206.638 57.4228 206.618 57.472 206.581 57.5083C206.545 57.5445 206.496 57.5649 206.445 57.5649Z" fill="#00AB07"/>
<path d="M206.445 61.0552H204.799C204.747 61.0552 204.698 61.0348 204.662 60.9985C204.626 60.9622 204.605 60.913 204.605 60.8617C204.605 60.8104 204.626 60.7612 204.662 60.7249C204.698 60.6886 204.747 60.6682 204.799 60.6682H206.445C206.496 60.6682 206.545 60.6886 206.581 60.7249C206.618 60.7612 206.638 60.8104 206.638 60.8617C206.638 60.913 206.618 60.9622 206.581 60.9985C206.545 61.0348 206.496 61.0552 206.445 61.0552Z" fill="#00AB07"/>
<path d="M206.445 64.5454H204.799C204.747 64.5454 204.698 64.525 204.662 64.4887C204.626 64.4524 204.605 64.4032 204.605 64.3519C204.605 64.3006 204.626 64.2514 204.662 64.2151C204.698 64.1788 204.747 64.1584 204.799 64.1584H206.445C206.496 64.1584 206.545 64.1788 206.581 64.2151C206.618 64.2514 206.638 64.3006 206.638 64.3519C206.638 64.4032 206.618 64.4524 206.581 64.4887C206.545 64.525 206.496 64.5454 206.445 64.5454Z" fill="#00AB07"/>
<path d="M206.445 68.0358H204.799C204.747 68.0358 204.698 68.0154 204.662 67.9791C204.626 67.9428 204.605 67.8936 204.605 67.8423C204.605 67.791 204.626 67.7418 204.662 67.7055C204.698 67.6692 204.747 67.6488 204.799 67.6488H206.445C206.496 67.6488 206.545 67.6692 206.581 67.7055C206.618 67.7418 206.638 67.791 206.638 67.8423C206.638 67.8936 206.618 67.9428 206.581 67.9791C206.545 68.0154 206.496 68.0358 206.445 68.0358Z" fill="#00AB07"/>
<path d="M206.445 71.526H204.799C204.747 71.526 204.698 71.5056 204.662 71.4693C204.626 71.433 204.605 71.3838 204.605 71.3325C204.605 71.2812 204.626 71.232 204.662 71.1957C204.698 71.1594 204.747 71.139 204.799 71.139H206.445C206.496 71.139 206.545 71.1594 206.581 71.1957C206.618 71.232 206.638 71.2812 206.638 71.3325C206.638 71.3838 206.618 71.433 206.581 71.4693C206.545 71.5056 206.496 71.526 206.445 71.526Z" fill="#00AB07"/>
<path d="M206.445 75.0163H204.799C204.747 75.0163 204.698 74.996 204.662 74.9597C204.626 74.9234 204.605 74.8742 204.605 74.8229C204.605 74.7716 204.626 74.7223 204.662 74.6861C204.698 74.6498 204.747 74.6294 204.799 74.6294H206.445C206.496 74.6294 206.545 74.6498 206.581 74.6861C206.618 74.7223 206.638 74.7716 206.638 74.8229C206.638 74.8742 206.618 74.9234 206.581 74.9597C206.545 74.996 206.496 75.0163 206.445 75.0163Z" fill="#00AB07"/>
<path d="M206.445 78.5066H204.799C204.747 78.5066 204.698 78.4862 204.662 78.4499C204.626 78.4136 204.605 78.3644 204.605 78.3131C204.605 78.2618 204.626 78.2126 204.662 78.1763C204.698 78.14 204.747 78.1196 204.799 78.1196H206.445C206.496 78.1196 206.545 78.14 206.581 78.1763C206.618 78.2126 206.638 78.2618 206.638 78.3131C206.638 78.3644 206.618 78.4136 206.581 78.4499C206.545 78.4862 206.496 78.5066 206.445 78.5066Z" fill="#00AB07"/>
<path d="M206.445 81.9968H204.799C204.747 81.9968 204.698 81.9764 204.662 81.9401C204.626 81.9039 204.605 81.8547 204.605 81.8033C204.605 81.752 204.626 81.7028 204.662 81.6665C204.698 81.6302 204.747 81.6099 204.799 81.6099H206.445C206.496 81.6099 206.545 81.6302 206.581 81.6665C206.618 81.7028 206.638 81.752 206.638 81.8033C206.638 81.8547 206.618 81.9039 206.581 81.9401C206.545 81.9764 206.496 81.9968 206.445 81.9968Z" fill="#00AB07"/>
<path d="M206.445 85.4875H204.799C204.747 85.4875 204.698 85.4672 204.662 85.4309C204.626 85.3946 204.605 85.3454 204.605 85.2941C204.605 85.2428 204.626 85.1935 204.662 85.1573C204.698 85.121 204.747 85.1006 204.799 85.1006H206.445C206.496 85.1006 206.545 85.121 206.581 85.1573C206.618 85.1935 206.638 85.2428 206.638 85.2941C206.638 85.3454 206.618 85.3946 206.581 85.4309C206.545 85.4672 206.496 85.4875 206.445 85.4875Z" fill="#00AB07"/>
<path d="M217.409 43.6037H213.445C213.394 43.6037 213.345 43.5834 213.309 43.5471C213.272 43.5108 213.252 43.4616 213.252 43.4103C213.252 43.359 213.272 43.3097 213.309 43.2735C213.345 43.2372 213.394 43.2168 213.445 43.2168H217.409C217.46 43.2168 217.509 43.2372 217.546 43.2735C217.582 43.3097 217.602 43.359 217.602 43.4103C217.602 43.4616 217.582 43.5108 217.546 43.5471C217.509 43.5834 217.46 43.6037 217.409 43.6037Z" fill="#292A2E"/>
<path d="M213.932 64.5454H209.582C209.531 64.5454 209.481 64.525 209.445 64.4887C209.409 64.4524 209.389 64.4032 209.389 64.3519C209.389 64.3006 209.409 64.2514 209.445 64.2151C209.481 64.1788 209.531 64.1584 209.582 64.1584H213.932C213.983 64.1584 214.033 64.1788 214.069 64.2151C214.105 64.2514 214.125 64.3006 214.125 64.3519C214.125 64.4032 214.105 64.4524 214.069 64.4887C214.033 64.525 213.983 64.5454 213.932 64.5454Z" fill="#292A2E"/>
<path d="M217.409 68.0357H213.445C213.394 68.0357 213.345 68.0154 213.309 67.9791C213.272 67.9428 213.252 67.8936 213.252 67.8423C213.252 67.791 213.272 67.7417 213.309 67.7055C213.345 67.6692 213.394 67.6488 213.445 67.6488H217.409C217.46 67.6488 217.509 67.6692 217.546 67.7055C217.582 67.7417 217.602 67.791 217.602 67.8423C217.602 67.8936 217.582 67.9428 217.546 67.9791C217.509 68.0154 217.46 68.0357 217.409 68.0357Z" fill="#292A2E"/>
<path d="M239.815 47.094H216.149C216.098 47.094 216.049 47.0736 216.013 47.0373C215.976 47.001 215.956 46.9518 215.956 46.9005C215.956 46.8492 215.976 46.8 216.013 46.7637C216.049 46.7274 216.098 46.707 216.149 46.707H239.815C239.867 46.707 239.916 46.7274 239.952 46.7637C239.988 46.8 240.009 46.8492 240.009 46.9005C240.009 46.9518 239.988 47.001 239.952 47.0373C239.916 47.0736 239.867 47.094 239.815 47.094Z" fill="#292A2E"/>
<path d="M260.71 47.094H243.998C243.947 47.094 243.898 47.0736 243.861 47.0373C243.825 47.001 243.805 46.9518 243.805 46.9005C243.805 46.8492 243.825 46.8 243.861 46.7637C243.898 46.7274 243.947 46.707 243.998 46.707H260.71C260.761 46.707 260.81 46.7274 260.847 46.7637C260.883 46.8 260.903 46.8492 260.903 46.9005C260.903 46.9518 260.883 47.001 260.847 47.0373C260.81 47.0736 260.761 47.094 260.71 47.094Z" fill="#00AB07"/>
<path d="M269.679 47.094H264.556C264.505 47.094 264.456 47.0736 264.42 47.0373C264.384 47.001 264.363 46.9518 264.363 46.9005C264.363 46.8492 264.384 46.8 264.42 46.7637C264.456 46.7274 264.505 46.707 264.556 46.707H269.679C269.73 46.707 269.779 46.7274 269.816 46.7637C269.852 46.8 269.872 46.8492 269.872 46.9005C269.872 46.9518 269.852 47.001 269.816 47.0373C269.779 47.0736 269.73 47.094 269.679 47.094Z" fill="#292A2E"/>
<path d="M251.405 54.0746H216.149C216.098 54.0746 216.049 54.0542 216.013 54.0179C215.976 53.9816 215.956 53.9324 215.956 53.8811C215.956 53.8298 215.976 53.7806 216.013 53.7443C216.049 53.708 216.098 53.6876 216.149 53.6876H251.405C251.456 53.6876 251.505 53.708 251.542 53.7443C251.578 53.7806 251.598 53.8298 251.598 53.8811C251.598 53.9324 251.578 53.9816 251.542 54.0179C251.505 54.0542 251.456 54.0746 251.405 54.0746Z" fill="#292A2E"/>
<path d="M260.71 54.0746H255.588C255.536 54.0746 255.487 54.0542 255.451 54.0179C255.415 53.9816 255.395 53.9324 255.395 53.8811C255.395 53.8298 255.415 53.7806 255.451 53.7443C255.487 53.708 255.536 53.6876 255.588 53.6876H260.71C260.761 53.6876 260.811 53.708 260.847 53.7443C260.883 53.7806 260.903 53.8298 260.903 53.8811C260.903 53.9324 260.883 53.9816 260.847 54.0179C260.811 54.0542 260.761 54.0746 260.71 54.0746Z" fill="#00AB07"/>
<path d="M220.5 50.5844H216.149C216.098 50.5844 216.049 50.564 216.013 50.5277C215.976 50.4914 215.956 50.4422 215.956 50.3909C215.956 50.3396 215.976 50.2903 216.013 50.2541C216.049 50.2178 216.098 50.1974 216.149 50.1974H220.5C220.551 50.1974 220.6 50.2178 220.636 50.2541C220.672 50.2903 220.693 50.3396 220.693 50.3909C220.693 50.4422 220.672 50.4914 220.636 50.5277C220.6 50.564 220.551 50.5844 220.5 50.5844Z" fill="#00AB07"/>
<path d="M249.121 50.5844H224.682C224.631 50.5844 224.582 50.564 224.546 50.5277C224.51 50.4914 224.489 50.4422 224.489 50.3909C224.489 50.3396 224.51 50.2903 224.546 50.2541C224.582 50.2178 224.631 50.1974 224.682 50.1974H249.121C249.172 50.1974 249.221 50.2178 249.257 50.2541C249.294 50.2903 249.314 50.3396 249.314 50.3909C249.314 50.4422 249.294 50.4914 249.257 50.5277C249.221 50.564 249.172 50.5844 249.121 50.5844Z" fill="#00AB07"/>
<path d="M269.713 50.5844H253.772C253.721 50.5844 253.672 50.564 253.636 50.5277C253.599 50.4914 253.579 50.4422 253.579 50.3909C253.579 50.3396 253.599 50.2903 253.636 50.2541C253.672 50.2178 253.721 50.1974 253.772 50.1974H269.712C269.763 50.1974 269.812 50.2178 269.849 50.2541C269.885 50.2903 269.905 50.3396 269.905 50.3909C269.905 50.4422 269.885 50.4914 269.849 50.5277C269.812 50.564 269.763 50.5844 269.712 50.5844H269.713Z" fill="#292A2E"/>
<path d="M239.815 57.5649H216.149C216.098 57.5649 216.049 57.5445 216.013 57.5082C215.976 57.472 215.956 57.4228 215.956 57.3714C215.956 57.3201 215.976 57.2709 216.013 57.2346C216.049 57.1984 216.098 57.178 216.149 57.178H239.815C239.867 57.178 239.916 57.1984 239.952 57.2346C239.988 57.2709 240.009 57.3201 240.009 57.3714C240.009 57.4228 239.988 57.472 239.952 57.5082C239.916 57.5445 239.867 57.5649 239.815 57.5649Z" fill="#292A2E"/>
<path d="M252.984 57.5649H243.998C243.947 57.5649 243.898 57.5445 243.861 57.5082C243.825 57.472 243.805 57.4228 243.805 57.3714C243.805 57.3201 243.825 57.2709 243.861 57.2346C243.898 57.1984 243.947 57.178 243.998 57.178H252.984C253.035 57.178 253.084 57.1984 253.12 57.2346C253.156 57.2709 253.177 57.3201 253.177 57.3714C253.177 57.4228 253.156 57.472 253.12 57.5082C253.084 57.5445 253.035 57.5649 252.984 57.5649Z" fill="#00AB07"/>
<path d="M269.679 57.5649H256.83C256.779 57.5649 256.73 57.5445 256.693 57.5082C256.657 57.472 256.637 57.4228 256.637 57.3714C256.637 57.3201 256.657 57.2709 256.693 57.2346C256.73 57.1984 256.779 57.178 256.83 57.178H269.679C269.73 57.178 269.779 57.1984 269.815 57.2346C269.852 57.2709 269.872 57.3201 269.872 57.3714C269.872 57.4228 269.852 57.472 269.815 57.5082C269.779 57.5445 269.73 57.5649 269.679 57.5649Z" fill="#292A2E"/>
<path d="M220.5 61.0552H216.149C216.098 61.0552 216.049 61.0348 216.013 60.9985C215.976 60.9622 215.956 60.913 215.956 60.8617C215.956 60.8104 215.976 60.7612 216.013 60.7249C216.049 60.6886 216.098 60.6682 216.149 60.6682H220.5C220.551 60.6682 220.6 60.6886 220.636 60.7249C220.672 60.7612 220.693 60.8104 220.693 60.8617C220.693 60.913 220.672 60.9622 220.636 60.9985C220.6 61.0348 220.551 61.0552 220.5 61.0552Z" fill="#00AB07"/>
<path d="M249.121 61.0552H224.682C224.631 61.0552 224.582 61.0348 224.546 60.9985C224.51 60.9622 224.489 60.913 224.489 60.8617C224.489 60.8104 224.51 60.7612 224.546 60.7249C224.582 60.6886 224.631 60.6682 224.682 60.6682H249.121C249.172 60.6682 249.221 60.6886 249.257 60.7249C249.294 60.7612 249.314 60.8104 249.314 60.8617C249.314 60.913 249.294 60.9622 249.257 60.9985C249.221 61.0348 249.172 61.0552 249.121 61.0552Z" fill="#00AB07"/>
<path d="M239.043 75.0162H215.377C215.326 75.0162 215.276 74.9958 215.24 74.9595C215.204 74.9233 215.184 74.8741 215.184 74.8227C215.184 74.7714 215.204 74.7222 215.24 74.6859C215.276 74.6497 215.326 74.6293 215.377 74.6293H239.043C239.094 74.6293 239.143 74.6497 239.18 74.6859C239.216 74.7222 239.236 74.7714 239.236 74.8227C239.236 74.8741 239.216 74.9233 239.18 74.9595C239.143 74.9958 239.094 75.0162 239.043 75.0162Z" fill="#292A2E"/>
<path d="M259.938 75.0162H243.225C243.174 75.0162 243.125 74.9958 243.089 74.9596C243.053 74.9233 243.032 74.8741 243.032 74.8227C243.032 74.7714 243.053 74.7222 243.089 74.6859C243.125 74.6497 243.174 74.6293 243.225 74.6293H259.938C259.989 74.6293 260.038 74.6497 260.074 74.6859C260.11 74.7222 260.131 74.7714 260.131 74.8227C260.131 74.8741 260.11 74.9233 260.074 74.9596C260.038 74.9958 259.989 75.0162 259.938 75.0162Z" fill="#00AB07"/>
<path d="M227.453 71.526H215.377C215.326 71.526 215.276 71.5056 215.24 71.4693C215.204 71.4331 215.184 71.3838 215.184 71.3325C215.184 71.2812 215.204 71.232 215.24 71.1957C215.276 71.1594 215.326 71.139 215.377 71.139H227.453C227.505 71.139 227.554 71.1594 227.59 71.1957C227.626 71.232 227.647 71.2812 227.647 71.3325C227.647 71.3838 227.626 71.4331 227.59 71.4693C227.554 71.5056 227.505 71.526 227.453 71.526Z" fill="#00AB07"/>
<path d="M248.349 71.526H231.637C231.585 71.526 231.536 71.5056 231.5 71.4693C231.464 71.4331 231.443 71.3838 231.443 71.3325C231.443 71.2812 231.464 71.232 231.5 71.1957C231.536 71.1594 231.585 71.139 231.637 71.139H248.349C248.4 71.139 248.449 71.1594 248.485 71.1957C248.521 71.232 248.542 71.2812 248.542 71.3325C248.542 71.3838 248.521 71.4331 248.485 71.4693C248.449 71.5056 248.4 71.526 248.349 71.526Z" fill="#00AB07"/>
<path d="M268.94 71.526H253C252.949 71.526 252.899 71.5056 252.863 71.4693C252.827 71.4331 252.807 71.3838 252.807 71.3325C252.807 71.2812 252.827 71.232 252.863 71.1957C252.899 71.1594 252.949 71.139 253 71.139H268.94C268.991 71.139 269.04 71.1594 269.076 71.1957C269.112 71.232 269.133 71.2812 269.133 71.3325C269.133 71.3838 269.112 71.4331 269.076 71.4693C269.04 71.5056 268.991 71.526 268.94 71.526H268.94Z" fill="#292A2E"/>
<path d="M250.632 81.9972H215.377C215.326 81.9972 215.276 81.9768 215.24 81.9405C215.204 81.9042 215.184 81.855 215.184 81.8037C215.184 81.7524 215.204 81.7032 215.24 81.6669C215.276 81.6306 215.326 81.6102 215.377 81.6102H250.632C250.684 81.6102 250.733 81.6306 250.769 81.6669C250.805 81.7032 250.826 81.7524 250.826 81.8037C250.826 81.855 250.805 81.9042 250.769 81.9405C250.733 81.9768 250.684 81.9972 250.632 81.9972Z" fill="#00AB07"/>
<path d="M259.938 81.9972H254.815C254.764 81.9972 254.715 81.9768 254.679 81.9405C254.642 81.9042 254.622 81.855 254.622 81.8037C254.622 81.7524 254.642 81.7032 254.679 81.6669C254.715 81.6306 254.764 81.6102 254.815 81.6102H259.938C259.989 81.6102 260.038 81.6306 260.074 81.6669C260.111 81.7032 260.131 81.7524 260.131 81.8037C260.131 81.855 260.111 81.9042 260.074 81.9405C260.038 81.9768 259.989 81.9972 259.938 81.9972Z" fill="#292A2E"/>
<path d="M219.727 78.5069H215.377C215.326 78.5069 215.276 78.4865 215.24 78.4503C215.204 78.414 215.184 78.3648 215.184 78.3135C215.184 78.2622 215.204 78.2129 215.24 78.1767C215.276 78.1404 215.326 78.12 215.377 78.12H219.727C219.778 78.12 219.827 78.1404 219.864 78.1767C219.9 78.2129 219.92 78.2622 219.92 78.3135C219.92 78.3648 219.9 78.414 219.864 78.4503C219.827 78.4865 219.778 78.5069 219.727 78.5069Z" fill="#00AB07"/>
<path d="M248.348 78.5069H223.91C223.859 78.5069 223.81 78.4865 223.773 78.4503C223.737 78.414 223.717 78.3648 223.717 78.3135C223.717 78.2622 223.737 78.2129 223.773 78.1767C223.81 78.1404 223.859 78.12 223.91 78.12H248.348C248.4 78.12 248.449 78.1404 248.485 78.1767C248.521 78.2129 248.542 78.2622 248.542 78.3135C248.542 78.3648 248.521 78.414 248.485 78.4503C248.449 78.4865 248.4 78.5069 248.348 78.5069Z" fill="#292A2E"/>
<path d="M268.94 78.5069H253C252.949 78.5069 252.899 78.4865 252.863 78.4503C252.827 78.414 252.807 78.3648 252.807 78.3135C252.807 78.2622 252.827 78.2129 252.863 78.1767C252.899 78.1404 252.949 78.12 253 78.12H268.94C268.991 78.12 269.04 78.1404 269.076 78.1767C269.112 78.2129 269.133 78.2622 269.133 78.3135C269.133 78.3648 269.112 78.414 269.076 78.4503C269.04 78.4865 268.991 78.5069 268.94 78.5069H268.94Z" fill="#00AB07"/>
<path d="M239.043 85.4874H215.377C215.326 85.4874 215.276 85.467 215.24 85.4308C215.204 85.3945 215.184 85.3453 215.184 85.2939C215.184 85.2426 215.204 85.1934 215.24 85.1571C215.276 85.1208 215.326 85.1005 215.377 85.1005H239.043C239.094 85.1005 239.143 85.1208 239.18 85.1571C239.216 85.1934 239.236 85.2426 239.236 85.2939C239.236 85.3453 239.216 85.3945 239.18 85.4308C239.143 85.467 239.094 85.4874 239.043 85.4874Z" fill="#00AB07"/>
<path d="M252.211 85.4874H243.225C243.174 85.4874 243.125 85.467 243.089 85.4308C243.053 85.3945 243.032 85.3453 243.032 85.2939C243.032 85.2426 243.053 85.1934 243.089 85.1571C243.125 85.1208 243.174 85.1005 243.225 85.1005H252.211C252.262 85.1005 252.312 85.1208 252.348 85.1571C252.384 85.1934 252.404 85.2426 252.404 85.2939C252.404 85.3453 252.384 85.3945 252.348 85.4308C252.312 85.467 252.262 85.4874 252.211 85.4874Z" fill="#292A2E"/>
<path d="M268.906 85.4874H256.057C256.006 85.4874 255.957 85.467 255.921 85.4308C255.885 85.3945 255.864 85.3453 255.864 85.2939C255.864 85.2426 255.885 85.1934 255.921 85.1571C255.957 85.1208 256.006 85.1005 256.057 85.1005H268.906C268.958 85.1005 269.007 85.1208 269.043 85.1571C269.079 85.1934 269.1 85.2426 269.1 85.2939C269.1 85.3453 269.079 85.3945 269.043 85.4308C269.007 85.467 268.958 85.4874 268.906 85.4874Z" fill="#00AB07"/>
<path d="M202.964 89.2223C202.912 89.2223 202.863 89.202 202.827 89.1657C202.791 89.1294 202.771 89.0802 202.771 89.0289V34.0206C202.771 33.9693 202.791 33.9201 202.827 33.8838C202.863 33.8475 202.912 33.8271 202.964 33.8271C203.015 33.8271 203.064 33.8475 203.1 33.8838C203.136 33.9201 203.157 33.9693 203.157 34.0206V89.0289C203.157 89.0802 203.136 89.1294 203.1 89.1657C203.064 89.202 203.015 89.2223 202.964 89.2223Z" fill="#292A2E"/>
<path d="M267.656 30.3435C269.367 30.3435 270.755 28.9537 270.755 27.2394C270.755 25.525 269.367 24.1353 267.656 24.1353C265.944 24.1353 264.557 25.525 264.557 27.2394C264.557 28.9537 265.944 30.3435 267.656 30.3435Z" fill="white"/>
<path d="M194.129 36.4375H185.764C185.713 36.4375 185.664 36.4171 185.628 36.3808C185.592 36.3445 185.571 36.2953 185.571 36.244C185.571 36.1927 185.592 36.1435 185.628 36.1072C185.664 36.0709 185.713 36.0505 185.764 36.0505H194.129C194.18 36.0505 194.229 36.0709 194.266 36.1072C194.302 36.1435 194.322 36.1927 194.322 36.244C194.322 36.2953 194.302 36.3445 194.266 36.3808C194.229 36.4171 194.18 36.4375 194.129 36.4375Z" fill="#292A2E"/>
<path d="M191.609 40.2535H185.764C185.713 40.2535 185.664 40.2331 185.628 40.1969C185.592 40.1606 185.571 40.1114 185.571 40.0601C185.571 40.0087 185.592 39.9595 185.628 39.9232C185.664 39.887 185.713 39.8666 185.764 39.8666H191.609C191.66 39.8666 191.709 39.887 191.746 39.9232C191.782 39.9595 191.802 40.0087 191.802 40.0601C191.802 40.1114 191.782 40.1606 191.746 40.1969C191.709 40.2331 191.66 40.2535 191.609 40.2535Z" fill="#292A2E"/>
<path d="M196.749 44.0697H185.764C185.713 44.0697 185.664 44.0493 185.628 44.013C185.592 43.9767 185.571 43.9275 185.571 43.8762C185.571 43.8249 185.592 43.7757 185.628 43.7394C185.664 43.7031 185.713 43.6827 185.764 43.6827H196.749C196.8 43.6827 196.849 43.7031 196.886 43.7394C196.922 43.7757 196.942 43.8249 196.942 43.8762C196.942 43.9275 196.922 43.9767 196.886 44.013C196.849 44.0493 196.8 44.0697 196.749 44.0697Z" fill="#292A2E"/>
<path d="M198.799 47.8857H189.628C189.577 47.8857 189.527 47.8654 189.491 47.8291C189.455 47.7928 189.435 47.7436 189.435 47.6923C189.435 47.6409 189.455 47.5917 189.491 47.5554C189.527 47.5192 189.577 47.4988 189.628 47.4988H198.799C198.85 47.4988 198.899 47.5192 198.936 47.5554C198.972 47.5917 198.992 47.6409 198.992 47.6923C198.992 47.7436 198.972 47.7928 198.936 47.8291C198.899 47.8654 198.85 47.8857 198.799 47.8857Z" fill="#292A2E"/>
<path d="M194.364 51.7023H189.628C189.577 51.7023 189.527 51.6819 189.491 51.6456C189.455 51.6093 189.435 51.5601 189.435 51.5088C189.435 51.4575 189.455 51.4083 189.491 51.372C189.527 51.3357 189.577 51.3153 189.628 51.3153H194.364C194.415 51.3153 194.464 51.3357 194.501 51.372C194.537 51.4083 194.557 51.4575 194.557 51.5088C194.557 51.5601 194.537 51.6093 194.501 51.6456C194.464 51.6819 194.415 51.7023 194.364 51.7023Z" fill="#292A2E"/>
<path d="M197.992 55.5183H189.628C189.577 55.5183 189.527 55.4979 189.491 55.4616C189.455 55.4253 189.435 55.3761 189.435 55.3248C189.435 55.2735 189.455 55.2243 189.491 55.188C189.527 55.1517 189.577 55.1313 189.628 55.1313H197.992C198.044 55.1313 198.093 55.1517 198.129 55.188C198.165 55.2243 198.185 55.2735 198.185 55.3248C198.185 55.3761 198.165 55.4253 198.129 55.4616C198.093 55.4979 198.044 55.5183 197.992 55.5183Z" fill="#292A2E"/>
<path d="M192.214 59.3345H185.764C185.713 59.3345 185.664 59.3141 185.628 59.2778C185.592 59.2415 185.571 59.1923 185.571 59.141C185.571 59.0897 185.592 59.0405 185.628 59.0042C185.664 58.9679 185.713 58.9475 185.764 58.9475H192.214C192.265 58.9475 192.314 58.9679 192.351 59.0042C192.387 59.0405 192.407 59.0897 192.407 59.141C192.407 59.1923 192.387 59.2415 192.351 59.2778C192.314 59.3141 192.265 59.3345 192.214 59.3345Z" fill="#292A2E"/>
<path d="M189.997 63.1501H185.764C185.713 63.1501 185.664 63.1298 185.628 63.0935C185.592 63.0572 185.571 63.008 185.571 62.9567C185.571 62.9053 185.592 62.8561 185.628 62.8199C185.664 62.7836 185.713 62.7632 185.764 62.7632H189.997C190.048 62.7632 190.097 62.7836 190.134 62.8199C190.17 62.8561 190.19 62.9053 190.19 62.9567C190.19 63.008 190.17 63.0572 190.134 63.0935C190.097 63.1298 190.048 63.1501 189.997 63.1501Z" fill="#292A2E"/>
<path d="M206.182 35.6187V35.6884L208.597 36.5861C208.631 36.6002 208.661 36.6243 208.681 36.6553C208.702 36.6864 208.713 36.7229 208.713 36.7602V36.826C208.713 36.8551 208.706 36.8838 208.693 36.9095C208.679 36.9352 208.66 36.9571 208.635 36.973C208.611 36.9903 208.582 37.0012 208.553 37.0045C208.523 37.0079 208.493 37.0037 208.465 36.9924L205.738 35.9244C205.704 35.9108 205.675 35.8873 205.654 35.857C205.633 35.8267 205.622 35.7909 205.622 35.7542V35.5568C205.622 35.52 205.633 35.4839 205.653 35.4535C205.674 35.4231 205.704 35.3997 205.738 35.3866L208.465 34.3147C208.487 34.3071 208.511 34.3032 208.535 34.3031C208.57 34.3039 208.605 34.3146 208.635 34.3341C208.66 34.3508 208.68 34.3734 208.693 34.3997C208.707 34.4261 208.713 34.4554 208.713 34.485V34.5507C208.713 34.5877 208.703 34.624 208.682 34.6545C208.661 34.685 208.631 34.7083 208.597 34.721L206.182 35.6187Z" fill="#00AB07"/>
<path d="M210.968 33.5253L209.523 37.9559C209.512 37.9929 209.488 38.0251 209.457 38.0481C209.426 38.071 209.388 38.0835 209.349 38.0836C209.321 38.084 209.294 38.0776 209.269 38.0647C209.244 38.0519 209.222 38.0331 209.206 38.0101C209.189 37.9872 209.177 37.9606 209.172 37.9324C209.167 37.9042 209.168 37.8752 209.176 37.8476L210.62 33.4209C210.633 33.3832 210.656 33.3503 210.688 33.3267C210.72 33.3031 210.759 33.2901 210.798 33.2893C210.826 33.2892 210.854 33.2958 210.879 33.3086C210.903 33.3214 210.925 33.34 210.941 33.3628C210.958 33.3857 210.97 33.4124 210.975 33.4407C210.979 33.4691 210.977 33.4981 210.968 33.5253Z" fill="#00AB07"/>
<path d="M214.516 35.5568V35.7542C214.517 35.7905 214.507 35.8262 214.487 35.8566C214.467 35.887 214.438 35.9106 214.404 35.9244L211.673 36.9924C211.646 37.0037 211.617 37.0078 211.588 37.0044C211.558 37.001 211.531 36.9902 211.507 36.9731C211.482 36.9573 211.462 36.9356 211.448 36.9099C211.433 36.8842 211.426 36.8554 211.426 36.826V36.7602C211.426 36.7224 211.437 36.6854 211.458 36.6542C211.48 36.6231 211.51 36.5993 211.546 36.5861L213.96 35.6884V35.6187L211.546 34.721C211.51 34.7092 211.479 34.6863 211.458 34.6556C211.436 34.625 211.425 34.5882 211.426 34.5508V34.485C211.426 34.4551 211.433 34.4257 211.448 34.3994C211.462 34.3731 211.482 34.3506 211.507 34.3341C211.537 34.3147 211.572 34.3039 211.607 34.3031C211.63 34.3029 211.652 34.3068 211.673 34.3147L214.404 35.3866C214.438 35.4 214.467 35.4235 214.487 35.454C214.507 35.4845 214.517 35.5204 214.516 35.5568Z" fill="#00AB07"/>
<path d="M159.897 0H23.8262V136.293H159.897V0Z" fill="#F4F4F4"/>
<path d="M23.8262 0H22.2666V136.293H23.8262V0Z" fill="#F4F4F4"/>
<path opacity="0.05" d="M23.8262 0H22.2666V136.293H23.8262V0Z" fill="#292A2E"/>
<path opacity="0.05" d="M56.79 93.917V58.2582H85.9524V78.9754H131.125V115.657H150.323V136.293H131.125H127.426H30.3721V93.917H56.79Z" fill="#292A2E"/>
<path opacity="0.34" d="M82.2089 62.13H60.9727V66.0018H82.2089V62.13Z" fill="#FFFFFA"/>
<path opacity="0.34" d="M82.2089 70.153H60.9727V74.0248H82.2089V70.153Z" fill="#FFFFFA"/>
<path opacity="0.34" d="M82.2089 78.176H60.9727V82.0478H82.2089V78.176Z" fill="#FFFFFA"/>
<path opacity="0.34" d="M38.0509 97.6752H34.1367V101.547H38.0509V97.6752Z" fill="#FFFFFA"/>
<path opacity="0.34" d="M38.0509 105.698H34.1367V109.57H38.0509V105.698Z" fill="#FFFFFA"/>
<path opacity="0.34" d="M38.0509 113.722H34.1367V117.593H38.0509V113.722Z" fill="#FFFFFA"/>
<path opacity="0.34" d="M45.2921 97.6752H41.3779V101.547H45.2921V97.6752Z" fill="#FFFFFA"/>
<path opacity="0.34" d="M45.2921 105.698H41.3779V109.57H45.2921V105.698Z" fill="#FFFFFA"/>
<path opacity="0.34" d="M45.2921 113.722H41.3779V117.593H45.2921V113.722Z" fill="#FFFFFA"/>
<path opacity="0.34" d="M52.338 97.6752H48.4238V101.547H52.338V97.6752Z" fill="#FFFFFA"/>
<path opacity="0.34" d="M52.338 105.698H48.4238V109.57H52.338V105.698Z" fill="#FFFFFA"/>
<path opacity="0.34" d="M52.338 113.722H48.4238V117.593H52.338V113.722Z" fill="#FFFFFA"/>
<path d="M23.8262 67.3821H51.2061V0H53.4703V67.3821H127.426V0H129.69V67.3821H159.897V69.65H129.69V136.293H127.426V69.65H53.4703V136.293H51.2061V69.65H23.8262V67.3821Z" fill="white"/>
<path d="M165.317 136.129H18.4053V140.661H165.317V136.129Z" fill="#F4F4F4"/>
<path opacity="0.1" d="M165.317 136.129H18.4053V140.661H165.317V136.129Z" fill="#292A2E"/>
<path opacity="0.1" d="M18.4055 136.129H16.2842V140.661H18.4055V136.129Z" fill="#292A2E"/>
<path opacity="0.1" d="M18.4055 136.129H16.2842V140.661H18.4055V136.129Z" fill="#292A2E"/>
<path d="M22.2671 5.80273L159.897 5.80273V2.4328L22.2671 2.4328V5.80273Z" fill="white"/>
<path d="M22.2671 12.0975L159.897 12.0975V8.7276L22.2671 8.7276V12.0975Z" fill="white"/>
<path d="M22.2671 18.3921L159.897 18.3921V15.0222L22.2671 15.0222V18.3921Z" fill="white"/>
<path d="M22.2671 24.6865L159.897 24.6865V21.3166L22.2671 21.3166V24.6865Z" fill="white"/>
<path d="M22.2671 30.9806L159.897 30.9806V27.6107L22.2671 27.6107V30.9806Z" fill="white"/>
<path d="M36.8837 34.7816H38.9463L38.9463 -3.8147e-05H36.8837L36.8837 34.7816Z" fill="white"/>
<path d="M37.7409 39.7768C39.3058 39.7768 40.5745 38.506 40.5745 36.9385C40.5745 35.371 39.3058 34.1002 37.7409 34.1002C36.1759 34.1002 34.9072 35.371 34.9072 36.9385C34.9072 38.506 36.1759 39.7768 37.7409 39.7768Z" fill="white"/>
<path d="M23.4677 325.74L22.709 325.593L34.5674 207.562L35.3261 207.708L23.4677 325.74Z" fill="#494949"/>
<path d="M67.623 325.74L66.8643 325.593L78.7223 207.562L79.481 207.708L67.623 325.74Z" fill="#494949"/>
<path d="M165.226 325.74L165.984 325.593L154.126 207.562L153.367 207.708L165.226 325.74Z" fill="#494949"/>
<path d="M121.07 325.74L121.829 325.593L109.971 207.562L109.212 207.708L121.07 325.74Z" fill="#494949"/>
<path d="M105.344 155.616L104.578 155.719L111.506 207.687L112.271 207.585L105.344 155.616Z" fill="#494949"/>
<path d="M25.8303 155.615L25.0645 155.718L31.9919 207.687L32.7577 207.584L25.8303 155.615Z" fill="#494949"/>
<path d="M112.205 203.83H34.4313C32.3329 203.83 30.6318 205.533 30.6318 207.635V207.636C30.6318 209.737 32.3329 211.441 34.4313 211.441H112.205C114.303 211.441 116.004 209.737 116.004 207.636V207.635C116.004 205.533 114.303 203.83 112.205 203.83Z" fill="#292A2E"/>
<path opacity="0.8" d="M112.205 203.83H34.4313C32.3329 203.83 30.6318 205.533 30.6318 207.635V207.636C30.6318 209.737 32.3329 211.441 34.4313 211.441H112.205C114.303 211.441 116.004 209.737 116.004 207.636V207.635C116.004 205.533 114.303 203.83 112.205 203.83Z" fill="white"/>
<path d="M112.205 211.828H34.4318C33.8822 211.828 33.3379 211.719 32.83 211.509C32.3222 211.298 31.8608 210.989 31.4721 210.6C31.0834 210.211 30.7751 209.748 30.5647 209.24C30.3544 208.731 30.2461 208.186 30.2461 207.635C30.2461 207.085 30.3544 206.539 30.5647 206.031C30.7751 205.522 31.0834 205.06 31.4721 204.671C31.8608 204.281 32.3222 203.972 32.83 203.762C33.3379 203.551 33.8822 203.443 34.4318 203.443H112.205C112.755 203.443 113.299 203.551 113.807 203.762C114.315 203.972 114.776 204.281 115.165 204.671C115.553 205.06 115.862 205.522 116.072 206.031C116.282 206.539 116.391 207.085 116.391 207.635C116.391 208.186 116.282 208.731 116.072 209.24C115.862 209.748 115.553 210.211 115.165 210.6C114.776 210.989 114.315 211.298 113.807 211.509C113.299 211.719 112.755 211.828 112.205 211.828ZM34.4318 204.217C33.9836 204.217 33.5398 204.305 33.1257 204.477C32.7116 204.649 32.3353 204.9 32.0184 205.218C31.7015 205.535 31.4501 205.912 31.2785 206.327C31.107 206.742 31.0187 207.186 31.0187 207.635C31.0187 208.084 31.107 208.529 31.2785 208.943C31.4501 209.358 31.7015 209.735 32.0184 210.053C32.3353 210.37 32.7116 210.622 33.1257 210.794C33.5398 210.966 33.9836 211.054 34.4318 211.054H112.205C112.653 211.054 113.097 210.966 113.511 210.794C113.925 210.622 114.301 210.37 114.618 210.053C114.935 209.735 115.187 209.358 115.358 208.943C115.53 208.529 115.618 208.084 115.618 207.635C115.618 207.186 115.53 206.742 115.358 206.327C115.187 205.912 114.935 205.535 114.618 205.218C114.301 204.9 113.925 204.649 113.511 204.477C113.097 204.305 112.653 204.217 112.205 204.217H34.4318Z" fill="#292A2E"/>
<path d="M154.891 203.83H77.1178C75.0194 203.83 73.3184 205.533 73.3184 207.635V207.636C73.3184 209.737 75.0194 211.441 77.1178 211.441H154.891C156.99 211.441 158.691 209.737 158.691 207.636V207.635C158.691 205.533 156.99 203.83 154.891 203.83Z" fill="white"/>
<path d="M154.891 211.828H77.1174C76.5677 211.828 76.0234 211.719 75.5156 211.509C75.0077 211.298 74.5463 210.989 74.1576 210.6C73.7689 210.211 73.4606 209.748 73.2503 209.24C73.0399 208.731 72.9316 208.186 72.9316 207.635C72.9316 207.085 73.0399 206.539 73.2503 206.031C73.4606 205.522 73.7689 205.06 74.1576 204.671C74.5463 204.281 75.0077 203.972 75.5156 203.762C76.0234 203.551 76.5677 203.443 77.1174 203.443H154.891C155.441 203.443 155.985 203.551 156.493 203.762C157.001 203.972 157.462 204.281 157.851 204.671C158.239 205.06 158.548 205.522 158.758 206.031C158.968 206.539 159.077 207.085 159.077 207.635C159.077 208.186 158.968 208.731 158.758 209.24C158.548 209.748 158.239 210.211 157.851 210.6C157.462 210.989 157.001 211.298 156.493 211.509C155.985 211.719 155.441 211.828 154.891 211.828ZM77.1174 204.217C76.6692 204.217 76.2254 204.305 75.8113 204.477C75.3972 204.649 75.0209 204.9 74.704 205.218C74.387 205.535 74.1356 205.912 73.9641 206.327C73.7926 206.742 73.7043 207.186 73.7043 207.635C73.7043 208.084 73.7926 208.529 73.9641 208.943C74.1356 209.358 74.387 209.735 74.704 210.053C75.0209 210.37 75.3972 210.622 75.8113 210.794C76.2254 210.966 76.6692 211.054 77.1174 211.054H154.891C155.339 211.054 155.783 210.966 156.197 210.794C156.611 210.622 156.987 210.37 157.304 210.053C157.621 209.735 157.873 209.358 158.044 208.943C158.216 208.529 158.304 208.084 158.304 207.635C158.304 207.186 158.216 206.742 158.044 206.327C157.873 205.912 157.621 205.535 157.304 205.218C156.987 204.9 156.611 204.649 156.197 204.477C155.783 204.305 155.339 204.217 154.891 204.217H77.1174Z" fill="#292A2E"/>
<path d="M101.083 155.666H25.6553C24.4221 155.666 23.231 155.217 22.3044 154.402C21.3778 153.586 20.779 152.461 20.6197 151.237L15.6304 112.859C15.5371 112.142 15.5978 111.413 15.8082 110.721C16.0187 110.029 16.3741 109.39 16.8508 108.846C17.3274 108.302 17.9144 107.867 18.5724 107.569C19.2305 107.27 19.9445 107.116 20.6668 107.116H96.0934C97.3266 107.116 98.5177 107.566 99.4443 108.381C100.371 109.196 100.97 110.321 101.129 111.546L106.118 149.923C106.211 150.641 106.151 151.37 105.94 152.062C105.73 152.754 105.375 153.393 104.898 153.936C104.422 154.48 103.835 154.915 103.177 155.214C102.519 155.512 101.805 155.666 101.083 155.666Z" fill="#292A2E"/>
<path opacity="0.8" d="M101.083 155.666H25.6553C24.4221 155.666 23.231 155.217 22.3044 154.402C21.3778 153.586 20.779 152.461 20.6197 151.237L15.6304 112.859C15.5371 112.142 15.5978 111.413 15.8082 110.721C16.0187 110.029 16.3741 109.39 16.8508 108.846C17.3274 108.302 17.9144 107.867 18.5724 107.569C19.2305 107.27 19.9445 107.116 20.6668 107.116H96.0934C97.3266 107.116 98.5177 107.566 99.4443 108.381C100.371 109.196 100.97 110.321 101.129 111.546L106.118 149.923C106.211 150.641 106.151 151.37 105.94 152.062C105.73 152.754 105.375 153.393 104.898 153.936C104.422 154.48 103.835 154.915 103.177 155.214C102.519 155.512 101.805 155.666 101.083 155.666Z" fill="white"/>
<path d="M101.083 156.053H25.6558C24.3295 156.05 23.0494 155.566 22.0528 154.689C21.0563 153.812 20.4111 152.603 20.2369 151.287L15.248 112.909C15.1475 112.137 15.2127 111.353 15.439 110.608C15.6654 109.863 16.0479 109.175 16.5608 108.59C17.0737 108.005 17.7053 107.537 18.4135 107.216C19.1216 106.895 19.89 106.729 20.6672 106.729H96.0939C97.4201 106.732 98.7003 107.217 99.6967 108.093C100.693 108.97 101.338 110.179 101.512 111.496L106.502 149.873C106.602 150.645 106.537 151.43 106.311 152.174C106.084 152.919 105.702 153.607 105.189 154.192C104.676 154.777 104.045 155.245 103.337 155.566C102.629 155.887 101.86 156.053 101.083 156.053ZM20.6672 107.503C20 107.503 19.3404 107.646 18.7325 107.921C18.1246 108.197 17.5824 108.599 17.142 109.101C16.7017 109.604 16.3734 110.194 16.179 110.833C15.9847 111.473 15.9287 112.146 16.0148 112.809L21.0041 151.187C21.1536 152.317 21.7075 153.355 22.5631 154.108C23.4187 154.861 24.5178 155.277 25.6565 155.279H101.083C101.75 155.279 102.41 155.137 103.018 154.861C103.625 154.585 104.167 154.183 104.608 153.681C105.048 153.178 105.376 152.588 105.57 151.949C105.765 151.309 105.821 150.636 105.734 149.973L100.746 111.596C100.597 110.465 100.043 109.427 99.1872 108.675C98.3317 107.922 97.2326 107.506 96.0939 107.503L20.6672 107.503Z" fill="#292A2E"/>
<path d="M105.348 155.666H29.9202C28.687 155.666 27.4959 155.217 26.5694 154.402C25.6429 153.586 25.0441 152.461 24.8849 151.237L19.8941 112.859C19.8008 112.142 19.8614 111.413 20.0718 110.721C20.2822 110.029 20.6376 109.39 21.1142 108.846C21.5908 108.303 22.1776 107.867 22.8356 107.569C23.4936 107.271 24.2075 107.116 24.9297 107.116H100.359C101.592 107.116 102.783 107.566 103.709 108.381C104.636 109.196 105.235 110.321 105.394 111.546L110.383 149.923C110.476 150.641 110.416 151.37 110.205 152.062C109.995 152.754 109.64 153.393 109.163 153.936C108.686 154.48 108.1 154.915 107.442 155.214C106.784 155.512 106.07 155.666 105.348 155.666Z" fill="white"/>
<path d="M105.348 156.053H29.9203C28.5941 156.05 27.314 155.566 26.3175 154.689C25.3211 153.812 24.6759 152.603 24.5018 151.287L19.5125 112.909C19.4122 112.137 19.4774 111.353 19.7038 110.608C19.9302 109.863 20.3126 109.176 20.8255 108.591C21.3384 108.006 21.9699 107.537 22.6779 107.216C23.3859 106.895 24.1542 106.729 24.9314 106.729H100.358C101.685 106.732 102.965 107.217 103.961 108.093C104.958 108.97 105.603 110.179 105.777 111.496L110.767 149.873C110.867 150.645 110.802 151.43 110.575 152.174C110.349 152.919 109.966 153.607 109.453 154.192C108.941 154.777 108.309 155.245 107.601 155.566C106.893 155.887 106.125 156.053 105.348 156.053ZM24.9314 107.503C24.2642 107.503 23.6048 107.646 22.9971 107.922C22.3894 108.198 21.8474 108.6 21.4072 109.102C20.9671 109.604 20.6389 110.195 20.4446 110.834C20.2503 111.473 20.1944 112.147 20.2805 112.81L25.2679 151.187C25.4175 152.317 25.9715 153.355 26.827 154.108C27.6826 154.861 28.7816 155.277 29.9203 155.279H105.348C106.015 155.279 106.675 155.137 107.282 154.861C107.89 154.586 108.433 154.183 108.873 153.681C109.313 153.179 109.642 152.588 109.836 151.949C110.03 151.31 110.086 150.636 110 149.973L105.011 111.596C104.861 110.465 104.307 109.427 103.452 108.675C102.596 107.922 101.497 107.506 100.358 107.503L24.9314 107.503Z" fill="#292A2E"/>
<path d="M163.981 164.429L163.212 164.507L179.498 325.999L180.267 325.922L163.981 164.429Z" fill="#494949"/>
<path d="M97.2198 48.1995C97.2198 48.1995 102.232 44.4101 103.474 35.6875C104.435 28.9341 98.2157 33.3093 98.2157 33.3093C98.2157 33.3093 98.8608 28.4396 95.3183 28.9229C91.7758 29.4062 89.7939 34.5217 89.7939 34.5217" fill="#0C0C0C"/>
<path d="M77.0116 29.4929C77.0116 29.4929 59.4361 31.3816 65.7898 55.2347L67.3451 55.3392L70.5021 55.5512" fill="#0C0C0C"/>
<path d="M94.2762 80.1471C94.1989 80.1371 93.3413 94.3868 76.8123 93.1459C65.3696 92.2873 61.2897 80.127 61.0273 80.127C62.2612 79.8647 63.7857 79.4657 64.3918 79.3291C65.7123 79.0221 66.9082 78.3196 67.8204 77.3151C68.7325 76.3106 69.3177 75.0518 69.4981 73.706C69.8331 71.6861 69.2663 61.3515 69.4398 59.3076L87.0045 63.2344C86.7592 67.5512 85.0413 77.5581 91.0609 79.3291C92.0641 79.622 93.1431 79.8914 94.2762 80.1471Z" fill="#E98862"/>
<path opacity="0.52" d="M87.2513 75.2394C86.9762 74.3512 86.799 73.4355 86.7228 72.5087C86.53 70.3938 86.5689 68.2642 86.8387 66.1577C83.2687 65.6752 79.9054 64.1993 77.1309 61.8978C76.8049 63.1043 75.0112 68.3761 75.5084 69.5227C76.4452 71.6903 80.8558 75.2394 87.2513 75.2394Z" fill="#0C0C0C"/>
<path d="M83.6262 72.419C76.6964 71.7964 68.4025 67.4111 68.2832 57.9893L68.175 49.488C68.0556 40.0666 72.8989 32.3659 81.7556 32.253C90.612 32.1403 97.3289 39.6936 97.4483 49.1154L97.4962 52.8789C97.49 54.1714 97.3959 55.462 97.2145 56.7418C96.7602 60.1276 96.0556 65.2751 93.762 68.7573C91.5955 72.0448 88.053 72.8164 83.6262 72.419Z" fill="#E98862"/>
<path d="M86.8409 63.8079C88.2709 63.8728 89.6961 63.6002 91.0015 63.0119C91.0285 63.0004 91.053 62.9837 91.0735 62.9627C91.094 62.9417 91.1102 62.9168 91.1212 62.8895C91.1321 62.8623 91.1376 62.8331 91.1373 62.8037C91.137 62.7743 91.1309 62.7453 91.1194 62.7182C91.1078 62.6912 91.0911 62.6667 91.0702 62.6462C91.0492 62.6256 91.0244 62.6094 90.9972 62.5984C90.9699 62.5875 90.9408 62.582 90.9115 62.5823C90.8821 62.5826 90.8531 62.5887 90.8261 62.6002C88.0137 63.8017 85.4598 63.6256 83.4409 62.0914C83.4002 62.059 83.3578 62.0289 83.3138 62.0012C83.2631 61.9777 83.2054 61.974 83.1521 61.991C83.0988 62.0079 83.0537 62.0443 83.0259 62.0928C82.998 62.1414 82.9893 62.1987 83.0015 62.2533C83.0136 62.308 83.0458 62.3561 83.0917 62.3882C83.1079 62.3982 83.1338 62.4187 83.1689 62.447C84.2304 63.2566 85.509 63.7304 86.8409 63.8079Z" fill="#0C0C0C"/>
<path d="M86.7745 65.9294C87.0328 65.9454 87.2921 65.9392 87.5494 65.9109C87.6083 65.9046 87.6623 65.8752 87.6996 65.829C87.7368 65.7829 87.7542 65.7238 87.748 65.6648C87.7417 65.6058 87.7123 65.5517 87.6663 65.5144C87.6202 65.4771 87.5612 65.4596 87.5023 65.4659C85.9543 65.6307 85.2157 64.9203 85.1844 64.8897C85.1425 64.8477 85.0857 64.824 85.0265 64.824C84.9672 64.8239 84.9103 64.8474 84.8684 64.8893C84.8264 64.9313 84.8028 64.9882 84.8027 65.0475C84.8027 65.1069 84.8261 65.1638 84.868 65.2059C85.4009 65.6604 86.0746 65.9161 86.7745 65.9294Z" fill="#0C0C0C"/>
<path d="M94.5236 54.6906C95.1261 54.6906 95.6145 54.2014 95.6145 53.5979C95.6145 52.9944 95.1261 52.5051 94.5236 52.5051C93.9211 52.5051 93.4326 52.9944 93.4326 53.5979C93.4326 54.2014 93.9211 54.6906 94.5236 54.6906Z" fill="#0C0C0C"/>
<path d="M83.8654 54.0208C84.4679 54.0208 84.9563 53.5316 84.9563 52.9281C84.9563 52.3246 84.4679 51.8353 83.8654 51.8353C83.2629 51.8353 82.7744 52.3246 82.7744 52.9281C82.7744 53.5316 83.2629 54.0208 83.8654 54.0208Z" fill="#0C0C0C"/>
<path d="M68.8691 60.8527C66.1776 60.8871 63.9594 58.0307 63.9243 55.3348C63.8891 52.6389 66.0529 51.1244 68.7443 51.0903L70.154 52.8788L71.1824 60.8233L68.8691 60.8527Z" fill="#E98862"/>
<path d="M71.5451 56.5208C71.5451 56.5208 72.4541 43.1893 76.49 42.3658C79.178 41.8175 85.6963 45.6367 91.7337 44.4832C94.3754 43.9802 96.883 44.6334 97.1379 45.8832C97.2388 46.3781 98.8845 39.2664 94.7482 33.8708C91.4548 29.5737 80.6773 28.3606 75.7742 29.7691C62.1978 33.6703 68.1888 51.677 68.1888 51.677L68.7942 56.2732L71.5451 56.5208Z" fill="#0C0C0C"/>
<path d="M88.4658 60.6608H88.4832C89.3505 60.6519 90.8042 60.5404 90.7984 59.8904C90.7926 59.3517 89.2628 53.5541 89.0878 52.8947C89.0711 52.84 89.0338 52.7939 88.9838 52.766C88.9339 52.7382 88.8751 52.7309 88.8199 52.7456C88.7646 52.7602 88.7172 52.7958 88.6875 52.8447C88.6579 52.8937 88.6484 52.9523 88.6609 53.0081C89.3404 55.5759 90.3526 59.529 90.3568 59.8958C90.273 60.0506 89.3771 60.21 88.479 60.2193C88.4223 60.2205 88.3683 60.2434 88.3281 60.2834C88.2879 60.3234 88.2645 60.3773 88.2628 60.434C88.2611 60.4907 88.2812 60.5459 88.319 60.5882C88.3568 60.6305 88.4094 60.6566 88.4658 60.6612V60.6608Z" fill="#0C0C0C"/>
<path d="M91.4267 47.672C92.3382 47.4207 93.3006 47.4207 94.2121 47.672C94.6599 47.7925 95.0871 47.9798 95.4792 48.2277C95.8669 48.4702 96.2225 48.761 96.5373 49.0929C96.5977 49.1514 96.6328 49.2313 96.635 49.3155C96.6373 49.3996 96.6065 49.4813 96.5494 49.543C96.4923 49.6047 96.4133 49.6416 96.3294 49.6457C96.2455 49.6498 96.1633 49.6208 96.1004 49.5649L96.0807 49.5479C95.789 49.2776 95.4645 49.045 95.1149 48.8557C94.7719 48.6675 94.4023 48.5323 94.0189 48.4548C93.2641 48.2963 92.4809 48.3402 91.7485 48.5821L91.7176 48.5929C91.5968 48.6357 91.4639 48.6287 91.3483 48.5734C91.2326 48.518 91.1436 48.4189 91.1009 48.2979C91.0582 48.1768 91.0652 48.0438 91.1204 47.9279C91.1757 47.812 91.2746 47.7229 91.3954 47.6801L91.4267 47.672Z" fill="#0C0C0C"/>
<path d="M84.9717 48.2212C84.2782 47.8836 83.5079 47.7355 82.7388 47.7921C82.3485 47.8175 81.9642 47.902 81.5992 48.0428C81.2281 48.184 80.8761 48.3712 80.5515 48.6L80.5306 48.6139C80.4609 48.6587 80.3767 48.6748 80.2955 48.659C80.2142 48.6431 80.1422 48.5966 80.0944 48.5289C80.0465 48.4613 80.0265 48.3777 80.0386 48.2957C80.0506 48.2137 80.0937 48.1395 80.159 48.0885C80.5153 47.8015 80.9064 47.5607 81.323 47.3718C81.7447 47.1789 82.1929 47.0503 82.6527 46.9903C83.5895 46.8624 84.5435 46.9904 85.4137 47.361C85.5315 47.4123 85.6242 47.5084 85.6713 47.6282C85.7183 47.7479 85.716 47.8815 85.6648 47.9995C85.6136 48.1175 85.5176 48.2103 85.3981 48.2575C85.2785 48.3046 85.1452 48.3023 85.0274 48.251L85.0007 48.2382L84.9717 48.2212Z" fill="#0C0C0C"/>
<path d="M90.1294 38.4952C92.1216 38.0783 93.24 35.3594 92.6274 32.4224C92.0148 29.4854 89.9031 27.4425 87.9109 27.8594C85.9187 28.2763 84.8003 30.9952 85.413 33.9322C86.0256 36.8692 88.1372 38.9121 90.1294 38.4952Z" fill="#0C0C0C"/>
<path d="M201.241 305.589C201.241 305.589 203.312 316.343 213.365 316.942C223.418 317.542 221.238 325.564 221.238 325.564H182.821V306.338L201.241 305.589Z" fill="#00AB07"/>
<path d="M128.154 298.798C128.154 298.798 125.273 309.364 134.03 314.347C142.787 319.329 137.295 325.564 137.295 325.564L102.823 308.576L111.296 291.326L128.154 298.798Z" fill="#00AB07"/>
<path d="M106.804 295.814L135.874 203.956H83.1803C72.5951 203.956 68.1826 194.965 68.1826 184.364C68.1826 173.762 78.5885 164.468 89.1728 164.468H160.29C166.746 164.468 173.985 168.423 177.528 173.829C181.071 179.234 180.113 187.611 177.546 193.544L130.995 306.791" fill="#262626"/>
<path opacity="0.8" d="M106.804 295.814L135.874 203.956H83.1803C72.5951 203.956 68.1826 194.965 68.1826 184.364C68.1826 173.762 78.5885 164.468 89.1728 164.468H160.29C166.746 164.468 173.985 168.423 177.528 173.829C181.071 179.234 180.113 187.611 177.546 193.544L130.995 306.791" fill="#0A0A0A"/>
<path d="M180.612 315.576L132.005 203.956L68.1817 203.952C53.227 202.777 46.378 194.568 46.5959 183.969C46.8106 173.504 52.1009 163.167 62.5017 163.167H148.524C156.219 163.326 162.274 171.844 165.129 179.003L205.537 308.743" fill="#262626"/>
<path d="M42.2424 163.295C42.2424 163.295 39.408 181.809 43.9009 192.103C49.5099 204.953 70.5364 203.952 70.5364 203.952L69.3515 163.167L42.2424 163.295Z" fill="#262626"/>
<path d="M166.957 162.931L121.874 153.574C119.995 153.184 118.245 152.326 116.785 151.079C115.326 149.832 114.204 148.236 113.523 146.44L95.7911 99.637C95.2512 98.2323 94.9936 96.7347 95.0333 95.2301C95.0729 93.7255 95.4089 92.2435 96.022 90.8694C96.6352 89.4952 97.5133 88.2559 98.606 87.2227C99.6987 86.1895 100.984 85.3827 102.389 84.8486C103.794 84.3146 105.291 84.0638 106.793 84.1108C108.295 84.1577 109.773 84.5014 111.141 85.1222C112.51 85.7429 113.743 86.6285 114.77 87.7279C115.796 88.8274 116.595 90.1191 117.122 91.5289L132.633 132.468L171.587 140.553C171.587 140.553 167.739 163.093 166.957 162.931Z" fill="#00AB07"/>
<path d="M114.813 111.522C114.293 117.649 110.602 155.87 110.1 163.417H42.2719C41.8821 156.61 40.6169 127.714 39.1389 114.405C37.7284 101.705 37.2166 94.4572 38.8414 90.5108C41.7071 83.5496 48.8783 81.0448 55.0556 80.2071C58.8272 79.6959 64.5003 79.3291 64.5003 79.3291C64.5003 79.3291 64.9808 89.062 76.4344 89.6038C92.0258 90.339 90.9847 79.3291 91.0619 79.3291C93.5877 79.3291 107.337 81.169 110.775 83.4133C115.631 86.5836 117.065 90.9035 117.122 94.8724C117.187 99.4427 115.403 104.574 114.813 111.522Z" fill="#00AB07"/>
<path d="M112.148 142.754H112.131C112.106 142.751 112.081 142.744 112.059 142.733C112.036 142.721 112.016 142.705 112 142.686C111.983 142.666 111.971 142.644 111.963 142.62C111.956 142.595 111.953 142.57 111.955 142.545L113.716 121.358C113.717 121.332 113.724 121.307 113.735 121.284C113.746 121.261 113.762 121.241 113.782 121.224C113.801 121.208 113.824 121.195 113.848 121.188C113.873 121.18 113.898 121.178 113.924 121.181C113.949 121.183 113.974 121.19 113.996 121.202C114.019 121.213 114.039 121.229 114.055 121.249C114.072 121.268 114.084 121.29 114.092 121.315C114.1 121.339 114.103 121.364 114.1 121.39L112.34 142.577C112.335 142.625 112.313 142.67 112.278 142.703C112.242 142.735 112.196 142.753 112.148 142.754Z" fill="#0C0C0C"/>
<path d="M144.451 155.469L159.333 109.645C159.595 108.84 160.104 108.138 160.788 107.641C161.472 107.143 162.296 106.875 163.141 106.875H227.638C228.27 106.875 228.893 107.025 229.456 107.312C230.019 107.6 230.507 108.017 230.878 108.529C231.249 109.041 231.495 109.634 231.593 110.26C231.692 110.885 231.641 111.525 231.446 112.127L212.7 157.952C212.439 158.758 211.929 159.459 211.245 159.957C210.561 160.455 209.738 160.723 208.892 160.723H148.259C147.627 160.723 147.003 160.573 146.44 160.285C145.877 159.998 145.389 159.581 145.018 159.068C144.646 158.556 144.401 157.963 144.303 157.337C144.204 156.712 144.255 156.072 144.451 155.469Z" fill="#292A2E"/>
<path d="M144.451 155.469L159.333 109.645C159.595 108.84 160.104 108.138 160.788 107.641C161.472 107.143 162.296 106.875 163.141 106.875H227.638C228.27 106.875 228.893 107.025 229.456 107.312C230.019 107.6 230.507 108.017 230.878 108.529C231.249 109.041 231.495 109.634 231.593 110.26C231.692 110.885 231.641 111.525 231.446 112.127L212.7 157.952C212.439 158.758 211.929 159.459 211.245 159.957C210.561 160.455 209.738 160.723 208.892 160.723H148.259C147.627 160.723 147.003 160.573 146.44 160.285C145.877 159.998 145.389 159.581 145.018 159.068C144.646 158.556 144.401 157.963 144.303 157.337C144.204 156.712 144.255 156.072 144.451 155.469Z" fill="#292A2E"/>
<path d="M156.591 157.005H116.003C114.992 157.005 114.172 157.826 114.172 158.839V158.887C114.172 159.9 114.992 160.721 116.003 160.721H156.591C157.602 160.721 158.422 159.9 158.422 158.887V158.839C158.422 157.826 157.602 157.005 156.591 157.005Z" fill="#292A2E"/>
<path d="M156.591 157.005H116.003C114.992 157.005 114.172 157.826 114.172 158.839V158.887C114.172 159.9 114.992 160.721 116.003 160.721H156.591C157.602 160.721 158.422 159.9 158.422 158.887V158.839C158.422 157.826 157.602 157.005 156.591 157.005Z" fill="#292A2E"/>
<path d="M186.016 142.403C189.528 142.403 192.376 139.552 192.376 136.034C192.376 132.516 189.528 129.664 186.016 129.664C182.504 129.664 179.657 132.516 179.657 136.034C179.657 139.552 182.504 142.403 186.016 142.403Z" fill="white"/>
<path d="M141.058 144.735L130.928 141.179L132.383 141.078C132.851 141.036 133.287 140.818 133.601 140.467C133.915 140.115 134.084 139.658 134.075 139.187C134.061 138.944 133.998 138.706 133.89 138.488C133.782 138.27 133.631 138.076 133.445 137.919C133.26 137.762 133.044 137.644 132.812 137.572C132.58 137.501 132.335 137.478 132.094 137.505L114.172 139.412L114.635 145.181C114.78 146.972 115.456 148.68 116.575 150.085C117.695 151.489 119.208 152.527 120.921 153.065L128.682 155.486C129.083 155.62 129.517 155.611 129.912 155.46C130.307 155.31 130.638 155.027 130.849 154.661C131.032 154.326 131.104 153.941 131.053 153.562C131.002 153.183 130.832 152.83 130.568 152.555C130.585 152.543 130.599 152.528 130.61 152.51C130.621 152.492 130.628 152.471 130.631 152.451C130.634 152.43 130.633 152.408 130.627 152.388C130.622 152.368 130.612 152.349 130.599 152.332L132.028 152.782C132.474 152.932 132.961 152.907 133.389 152.711C133.817 152.516 134.156 152.165 134.335 151.729C134.482 151.334 134.485 150.9 134.344 150.503C134.203 150.105 133.926 149.771 133.563 149.558C133.58 149.549 133.594 149.537 133.607 149.522L134.195 149.707C134.596 149.841 135.03 149.832 135.425 149.681C135.82 149.531 136.151 149.248 136.362 148.881C136.584 148.475 136.64 147.998 136.519 147.551C136.398 147.104 136.109 146.721 135.713 146.482C135.716 146.47 135.718 146.458 135.718 146.446L139.937 147.927C140.146 148.003 140.369 148.036 140.592 148.026C140.815 148.015 141.033 147.96 141.234 147.864C141.436 147.768 141.616 147.633 141.766 147.467C141.915 147.301 142.029 147.107 142.103 146.896C142.177 146.685 142.208 146.462 142.195 146.239C142.182 146.016 142.125 145.798 142.028 145.597C141.93 145.396 141.794 145.217 141.626 145.069C141.459 144.921 141.264 144.808 141.053 144.737L141.058 144.735Z" fill="#E98862"/>
<path opacity="0.2" d="M135.558 146.609C135.538 146.609 135.519 146.606 135.5 146.599L131.42 145.113C131.378 145.098 131.344 145.066 131.325 145.026C131.306 144.985 131.304 144.939 131.32 144.897C131.335 144.855 131.367 144.821 131.407 144.802C131.448 144.783 131.494 144.781 131.536 144.797L135.616 146.283C135.654 146.296 135.685 146.323 135.705 146.357C135.725 146.391 135.732 146.431 135.725 146.47C135.718 146.509 135.697 146.545 135.667 146.57C135.637 146.596 135.598 146.609 135.559 146.609H135.558Z" fill="#0A0A0A"/>
<path opacity="0.2" d="M133.495 149.581C133.475 149.581 133.456 149.578 133.438 149.571L130.222 148.428C130.201 148.421 130.181 148.41 130.164 148.395C130.147 148.381 130.134 148.363 130.124 148.342C130.114 148.322 130.108 148.3 130.107 148.278C130.105 148.256 130.109 148.233 130.116 148.212C130.124 148.191 130.135 148.171 130.15 148.155C130.165 148.138 130.184 148.125 130.204 148.115C130.224 148.106 130.246 148.101 130.269 148.1C130.291 148.099 130.313 148.103 130.334 148.111L133.551 149.254C133.588 149.267 133.619 149.293 133.639 149.327C133.66 149.362 133.667 149.402 133.66 149.441C133.653 149.48 133.633 149.516 133.603 149.541C133.573 149.567 133.534 149.581 133.495 149.581Z" fill="#0A0A0A"/>
<path opacity="0.2" d="M130.466 152.596C130.445 152.596 130.425 152.592 130.406 152.585L128.899 152.01C128.857 151.994 128.824 151.962 128.806 151.921C128.787 151.88 128.786 151.834 128.802 151.792C128.818 151.75 128.85 151.717 128.891 151.699C128.931 151.68 128.978 151.679 129.019 151.695L130.526 152.27C130.563 152.284 130.593 152.311 130.613 152.345C130.632 152.38 130.639 152.42 130.632 152.458C130.625 152.497 130.604 152.532 130.574 152.557C130.544 152.583 130.505 152.596 130.466 152.596H130.466Z" fill="#0A0A0A"/>
<path d="M122.105 135.998L79.6098 135.97L63.5336 96.6896L39.5518 106.789L59.6086 153.408L59.8045 153.872C60.7858 156.138 62.4387 158.048 64.5393 159.341C66.64 160.635 69.0869 161.251 71.5485 161.105L122.746 158.076L122.105 135.998Z" fill="#00AB07"/>
<path d="M70.8447 161.319C68.4624 161.315 66.1329 160.616 64.1409 159.307C62.1489 157.998 60.5807 156.136 59.628 153.949L59.4317 153.485L42.3398 113.763L42.6945 113.608L59.9822 153.797C60.9523 156.023 62.5796 157.898 64.6453 159.17C66.711 160.442 69.1161 161.05 71.537 160.912L122.548 157.894L121.916 136.192L79.4793 136.164L67.1171 105.961L67.4748 105.815L79.7377 135.777L122.291 135.806L122.945 158.258L122.757 158.269L71.5609 161.298C71.3218 161.312 71.0819 161.319 70.8447 161.319Z" fill="#0C0C0C"/>
<path d="M23.5786 164.431L7.28125 325.923L8.04997 326.001L24.3473 164.509L23.5786 164.431Z" fill="#494949"/>
<path d="M90.9136 164.431L74.6162 325.923L75.3849 326.001L91.6823 164.509L90.9136 164.431Z" fill="#494949"/>
<path d="M231.315 164.429L230.546 164.507L246.832 325.999L247.601 325.922L231.315 164.429Z" fill="#494949"/>
<path d="M246.001 161.298H9.95943C8.21118 161.298 6.79395 162.717 6.79395 164.468C6.79395 166.219 8.21118 167.639 9.95943 167.639H246.001C247.749 167.639 249.166 166.219 249.166 164.468C249.166 162.717 247.749 161.298 246.001 161.298Z" fill="#292A2E"/>
<path opacity="0.8" d="M246.001 161.298H9.95943C8.21118 161.298 6.79395 162.717 6.79395 164.468C6.79395 166.219 8.21118 167.639 9.95943 167.639H246.001C247.749 167.639 249.166 166.219 249.166 164.468C249.166 162.717 247.749 161.298 246.001 161.298Z" fill="white"/>
<path d="M246.001 168.026H9.96092C9.4914 168.03 9.02556 167.942 8.59037 167.765C8.15517 167.589 7.75925 167.328 7.4255 166.997C7.09175 166.666 6.82681 166.272 6.64599 165.838C6.46517 165.404 6.37207 164.938 6.37207 164.468C6.37207 163.998 6.46517 163.532 6.64599 163.098C6.82681 162.664 7.09175 162.27 7.4255 161.939C7.75925 161.609 8.15517 161.347 8.59037 161.171C9.02556 160.994 9.4914 160.906 9.96092 160.911H246.001C246.471 160.906 246.936 160.994 247.372 161.171C247.807 161.347 248.203 161.609 248.537 161.939C248.87 162.27 249.135 162.664 249.316 163.098C249.497 163.532 249.59 163.998 249.59 164.468C249.59 164.938 249.497 165.404 249.316 165.838C249.135 166.272 248.87 166.666 248.537 166.997C248.203 167.328 247.807 167.589 247.372 167.765C246.936 167.942 246.471 168.03 246.001 168.026ZM9.96092 161.685C9.59322 161.68 9.22832 161.749 8.88736 161.887C8.54639 162.025 8.23615 162.229 7.9746 162.488C7.71305 162.747 7.5054 163.055 7.36368 163.395C7.22196 163.735 7.14898 164.1 7.14898 164.468C7.14898 164.836 7.22196 165.201 7.36368 165.541C7.5054 165.881 7.71305 166.189 7.9746 166.448C8.23615 166.707 8.54639 166.911 8.88736 167.049C9.22832 167.187 9.59322 167.256 9.96092 167.252H246.001C246.369 167.256 246.734 167.187 247.075 167.049C247.416 166.911 247.726 166.707 247.987 166.448C248.249 166.189 248.457 165.881 248.598 165.541C248.74 165.201 248.813 164.836 248.813 164.468C248.813 164.1 248.74 163.735 248.598 163.395C248.457 163.055 248.249 162.747 247.987 162.488C247.726 162.229 247.416 162.025 247.075 161.887C246.734 161.749 246.369 161.68 246.001 161.685H9.96092Z" fill="#292A2E"/>
<path d="M246.002 161.298H79.8686C78.1204 161.298 76.7031 162.717 76.7031 164.468C76.7031 166.219 78.1204 167.639 79.8686 167.639H246.002C247.75 167.639 249.167 166.219 249.167 164.468C249.167 162.717 247.75 161.298 246.002 161.298Z" fill="white"/>
<path d="M246.002 168.026H79.8683C78.9327 168.016 78.0388 167.637 77.3808 166.971C76.7227 166.305 76.3535 165.405 76.3535 164.468C76.3535 163.531 76.7227 162.632 77.3808 161.966C78.0388 161.3 78.9327 160.92 79.8683 160.911H246.002C246.471 160.906 246.937 160.994 247.372 161.171C247.807 161.347 248.203 161.609 248.537 161.939C248.871 162.27 249.136 162.664 249.317 163.098C249.497 163.532 249.59 163.998 249.59 164.468C249.59 164.938 249.497 165.404 249.317 165.838C249.136 166.272 248.871 166.666 248.537 166.997C248.203 167.328 247.807 167.589 247.372 167.765C246.937 167.942 246.471 168.03 246.002 168.026ZM79.8683 161.685C79.1369 161.693 78.4384 161.99 77.9243 162.511C77.4102 163.032 77.1219 163.736 77.1219 164.468C77.1219 165.201 77.4102 165.904 77.9243 166.425C78.4384 166.946 79.1369 167.243 79.8683 167.252H246.002C246.369 167.256 246.734 167.187 247.075 167.049C247.416 166.911 247.726 166.707 247.988 166.448C248.249 166.189 248.457 165.881 248.599 165.541C248.741 165.201 248.814 164.836 248.814 164.468C248.814 164.1 248.741 163.735 248.599 163.395C248.457 163.055 248.249 162.747 247.988 162.488C247.726 162.229 247.416 162.025 247.075 161.887C246.734 161.749 246.369 161.68 246.002 161.685H79.8683Z" fill="#292A2E"/>
<path d="M252.368 274.517C252.318 274.517 252.267 274.507 252.221 274.488C252.174 274.468 252.131 274.44 252.095 274.404C251.551 273.859 250.664 263.856 248.274 234.075C247.296 221.889 246.372 210.379 245.698 203.384C245.65 202.884 245.457 202.826 245.393 202.807C244.471 202.528 241.665 204.744 240.098 206.685C240.034 206.765 239.94 206.816 239.838 206.827C239.736 206.838 239.634 206.807 239.555 206.743C239.475 206.678 239.424 206.585 239.413 206.483C239.402 206.381 239.433 206.278 239.497 206.198C240.533 204.915 243.91 201.552 245.616 202.066C245.959 202.17 246.388 202.469 246.467 203.309C247.142 210.311 248.066 221.824 249.044 234.013C250.496 252.11 252.141 272.613 252.682 273.904C252.724 273.962 252.748 274.03 252.753 274.101C252.759 274.172 252.744 274.243 252.712 274.307C252.68 274.37 252.63 274.423 252.57 274.46C252.509 274.497 252.439 274.517 252.368 274.517Z" fill="#494949"/>
<path d="M244.705 216.219C251.116 211.073 253.241 203.061 249.451 198.326C245.661 193.591 237.393 193.925 230.982 199.071C224.572 204.218 222.447 212.229 226.237 216.965C230.026 221.7 238.295 221.366 244.705 216.219Z" fill="#00AB07"/>
<path opacity="0.2" d="M244.705 216.219C251.116 211.073 253.241 203.061 249.451 198.326C245.661 193.591 237.393 193.925 230.982 199.071C224.572 204.218 222.447 212.229 226.237 216.965C230.026 221.7 238.295 221.366 244.705 216.219Z" fill="white"/>
<path d="M228.034 218.169C227.997 218.169 227.961 218.159 227.93 218.139C227.899 218.119 227.875 218.091 227.859 218.058C227.844 218.025 227.838 217.988 227.842 217.951C227.847 217.915 227.862 217.88 227.885 217.852L246.155 195.785C246.187 195.745 246.234 195.721 246.285 195.716C246.336 195.711 246.387 195.727 246.427 195.76C246.466 195.792 246.491 195.84 246.496 195.891C246.5 195.942 246.485 195.993 246.452 196.032L228.183 218.099C228.165 218.121 228.142 218.139 228.116 218.151C228.09 218.163 228.062 218.169 228.034 218.169Z" fill="white"/>
<path d="M256.353 269.786C256.291 269.786 256.231 269.772 256.176 269.743C256.121 269.715 256.074 269.674 256.038 269.624C256.002 269.573 255.979 269.515 255.971 269.454C255.962 269.393 255.968 269.331 255.988 269.272L262.851 249.505C263.053 248.924 263.398 248.403 263.853 247.99C264.308 247.577 264.859 247.285 265.456 247.141C266.053 246.997 266.676 247.005 267.269 247.164C267.862 247.324 268.406 247.63 268.85 248.054L272.478 251.526C272.552 251.596 272.595 251.694 272.598 251.797C272.6 251.899 272.562 251.999 272.491 252.073C272.42 252.147 272.323 252.19 272.22 252.193C272.118 252.195 272.018 252.156 271.944 252.085L268.316 248.614C267.966 248.279 267.537 248.037 267.068 247.911C266.6 247.785 266.108 247.779 265.637 247.893C265.166 248.007 264.73 248.237 264.371 248.563C264.012 248.889 263.74 249.3 263.581 249.759L256.718 269.527C256.692 269.603 256.643 269.669 256.577 269.715C256.512 269.762 256.433 269.787 256.353 269.786Z" fill="#494949"/>
<path d="M282.613 262.47C287.364 258.704 287.082 250.419 281.983 243.967C276.884 237.515 268.899 235.337 264.148 239.104C259.397 242.87 259.679 251.154 264.779 257.607C269.878 264.059 277.862 266.237 282.613 262.47Z" fill="#00AB07"/>
<path d="M249.253 273.256C249.166 273.256 249.082 273.227 249.013 273.173C248.945 273.119 248.897 273.044 248.877 272.959L237.359 224.728C237.28 224.4 237.112 224.099 236.874 223.86C236.636 223.62 236.336 223.451 236.008 223.371C235.68 223.291 235.337 223.303 235.015 223.406C234.694 223.509 234.407 223.699 234.186 223.954L230.636 228.064C230.603 228.103 230.562 228.135 230.517 228.158C230.472 228.181 230.422 228.195 230.371 228.199C230.32 228.203 230.269 228.197 230.22 228.181C230.172 228.165 230.127 228.139 230.089 228.106C230.05 228.072 230.018 228.032 229.996 227.986C229.973 227.94 229.959 227.89 229.956 227.839C229.953 227.788 229.959 227.737 229.976 227.689C229.992 227.64 230.018 227.596 230.052 227.557L233.602 223.448C233.916 223.085 234.324 222.815 234.781 222.669C235.238 222.523 235.726 222.506 236.192 222.62C236.658 222.734 237.084 222.974 237.422 223.315C237.761 223.655 237.999 224.083 238.11 224.55L249.627 272.781C249.65 272.881 249.633 272.985 249.579 273.072C249.526 273.159 249.44 273.221 249.341 273.245C249.312 273.252 249.282 273.256 249.253 273.256Z" fill="#494949"/>
<path d="M245.003 238.778C246.403 230.669 242.698 223.258 236.728 222.224C230.757 221.189 224.782 226.925 223.382 235.033C221.983 243.142 225.688 250.554 231.658 251.588C237.628 252.622 243.603 246.887 245.003 238.778Z" fill="#00AB07"/>
<path d="M252.368 274.517C252.352 274.517 252.337 274.516 252.321 274.514C252.27 274.508 252.222 274.492 252.178 274.467C252.133 274.442 252.095 274.408 252.063 274.368C252.032 274.328 252.009 274.282 251.995 274.233C251.982 274.184 251.978 274.133 251.984 274.083L259.338 214.277C259.418 213.626 259.685 213.011 260.105 212.508C260.526 212.004 261.082 211.633 261.708 211.439C262.334 211.244 263.003 211.235 263.634 211.413C264.265 211.59 264.831 211.946 265.265 212.438L273.671 221.974C273.739 222.051 273.773 222.151 273.767 222.254C273.76 222.356 273.714 222.452 273.637 222.52C273.56 222.588 273.459 222.622 273.357 222.616C273.255 222.61 273.159 222.563 273.091 222.486L264.686 212.95C264.351 212.57 263.913 212.295 263.425 212.158C262.937 212.021 262.421 212.028 261.937 212.178C261.453 212.328 261.023 212.615 260.698 213.004C260.373 213.393 260.167 213.868 260.105 214.372L252.752 274.177C252.74 274.271 252.695 274.357 252.624 274.42C252.554 274.482 252.463 274.517 252.368 274.517Z" fill="#494949"/>
<path d="M282.292 227.273C285.225 221.962 281.774 214.428 274.585 210.445C267.396 206.462 259.19 207.538 256.257 212.848C253.325 218.159 256.775 225.693 263.964 229.676C271.154 233.659 279.359 232.583 282.292 227.273Z" fill="#00AB07"/>
<path opacity="0.2" d="M282.613 262.47C287.364 258.704 287.082 250.419 281.983 243.967C276.884 237.515 268.899 235.337 264.148 239.104C259.397 242.87 259.679 251.154 264.779 257.607C269.878 264.059 277.862 266.237 282.613 262.47Z" fill="white"/>
<path opacity="0.5" d="M245.003 238.778C246.403 230.669 242.698 223.258 236.728 222.224C230.757 221.189 224.782 226.925 223.382 235.033C221.983 243.142 225.688 250.554 231.658 251.588C237.628 252.622 243.603 246.887 245.003 238.778Z" fill="white"/>
<path opacity="0.5" d="M282.292 227.273C285.225 221.962 281.774 214.428 274.585 210.445C267.396 206.462 259.19 207.538 256.257 212.848C253.325 218.159 256.775 225.693 263.964 229.676C271.154 233.659 279.359 232.583 282.292 227.273Z" fill="white"/>
<path d="M261.774 325.262H242.962L239.845 264.974H264.892L261.774 325.262Z" fill="#292A2E"/>
<path opacity="0.3" d="M261.774 325.262H242.962L239.845 264.974H264.892L261.774 325.262Z" fill="white"/>
<path d="M282.614 262.661C282.585 262.661 282.556 262.654 282.53 262.641C282.504 262.629 282.481 262.61 282.463 262.587L263.997 239.221C263.965 239.181 263.95 239.13 263.956 239.079C263.962 239.028 263.988 238.981 264.028 238.949C264.068 238.917 264.12 238.903 264.171 238.909C264.221 238.915 264.268 238.94 264.3 238.981L282.766 262.347C282.788 262.375 282.802 262.41 282.806 262.446C282.81 262.482 282.804 262.519 282.788 262.551C282.773 262.584 282.748 262.612 282.717 262.631C282.686 262.651 282.651 262.661 282.614 262.661Z" fill="white"/>
<path d="M281.064 229.145C281.023 229.144 280.983 229.131 280.95 229.106L257.321 211.824C257.279 211.794 257.251 211.748 257.244 211.698C257.236 211.647 257.248 211.595 257.278 211.554C257.309 211.512 257.354 211.485 257.405 211.477C257.455 211.469 257.507 211.481 257.548 211.512L281.178 228.794C281.21 228.818 281.234 228.852 281.246 228.891C281.258 228.93 281.258 228.971 281.245 229.01C281.232 229.048 281.208 229.082 281.175 229.106C281.142 229.129 281.103 229.142 281.062 229.142L281.064 229.145Z" fill="white"/>
<path d="M230.698 251.336C230.681 251.336 230.664 251.334 230.648 251.329C230.599 251.316 230.557 251.284 230.531 251.239C230.505 251.195 230.498 251.142 230.511 251.093L238.033 222.864C238.048 222.815 238.08 222.774 238.124 222.75C238.168 222.725 238.22 222.719 238.268 222.732C238.317 222.745 238.358 222.776 238.384 222.819C238.41 222.862 238.418 222.914 238.406 222.963L230.885 251.192C230.874 251.233 230.849 251.27 230.816 251.296C230.782 251.322 230.74 251.336 230.698 251.336Z" fill="white"/>
<path d="M270.856 325.805H0.270423C0.198702 325.805 0.129919 325.777 0.0792049 325.726C0.0284909 325.675 0 325.606 0 325.535C0 325.463 0.0284909 325.394 0.0792049 325.343C0.129919 325.292 0.198702 325.264 0.270423 325.264H270.855C270.927 325.264 270.996 325.292 271.046 325.343C271.097 325.394 271.126 325.463 271.126 325.535C271.126 325.606 271.097 325.675 271.046 325.726C270.996 325.777 270.927 325.805 270.855 325.805H270.856Z" fill="#292A2E"/>
<g opacity="0.65">
<path opacity="0.65" d="M270.856 325.805H0.270423C0.198702 325.805 0.129919 325.777 0.0792049 325.726C0.0284909 325.675 0 325.606 0 325.535C0 325.463 0.0284909 325.394 0.0792049 325.343C0.129919 325.292 0.198702 325.264 0.270423 325.264H270.855C270.927 325.264 270.996 325.292 271.046 325.343C271.097 325.394 271.126 325.463 271.126 325.535C271.126 325.606 271.097 325.675 271.046 325.726C270.996 325.777 270.927 325.805 270.855 325.805H270.856Z" fill="#292A2E"/>
</g>
</g>
<defs>
<clipPath id="clip0_906_389">
<rect width="286" height="326" fill="white"/>
</clipPath>
</defs>
</svg>
