<svg width="22" height="20" viewBox="0 0 22 20" fill="none" xmlns="http://www.w3.org/2000/svg">
<path d="M20.8445 8.96094H4.84564L14.4214 0.648438C14.5745 0.514453 14.4816 0.265625 14.2792 0.265625H11.8593C11.7527 0.265625 11.6515 0.303906 11.5722 0.372265L1.239 9.33828C1.14436 9.42032 1.06846 9.52174 1.01644 9.63567C0.964422 9.7496 0.9375 9.87339 0.9375 9.99863C0.9375 10.1239 0.964422 10.2477 1.01644 10.3616C1.06846 10.4755 1.14436 10.5769 1.239 10.659L11.6324 19.6797C11.6734 19.7152 11.7226 19.7344 11.7745 19.7344H14.2765C14.4788 19.7344 14.5718 19.4828 14.4187 19.3516L4.84564 11.0391H20.8445C20.9648 11.0391 21.0632 10.9406 21.0632 10.8203V9.17969C21.0632 9.05937 20.9648 8.96094 20.8445 8.96094Z" fill="white"/>
</svg>
