<svg width="14" height="16" viewBox="0 0 14 16" fill="none" xmlns="http://www.w3.org/2000/svg">
<path d="M2 3.10625V11.125C1.99988 11.9184 2.30154 12.6821 2.8438 13.2613C3.38606 13.8405 4.12831 14.1917 4.92 14.2437L5.125 14.25H10.6425C10.5133 14.6155 10.2739 14.932 9.95737 15.1559C9.64084 15.3797 9.26269 15.4999 8.875 15.5H4.5C3.50544 15.5 2.55161 15.1049 1.84835 14.4017C1.14509 13.6984 0.75 12.7446 0.75 11.75V4.875C0.749797 4.48709 0.86991 4.10867 1.09379 3.79189C1.31766 3.4751 1.63428 3.23555 2 3.10625V3.10625ZM11.375 0.5C11.8723 0.5 12.3492 0.697544 12.7008 1.04917C13.0525 1.40081 13.25 1.87772 13.25 2.375V11.125C13.25 11.6223 13.0525 12.0992 12.7008 12.4508C12.3492 12.8025 11.8723 13 11.375 13H5.125C4.62772 13 4.15081 12.8025 3.79917 12.4508C3.44754 12.0992 3.25 11.6223 3.25 11.125V2.375C3.25 1.87772 3.44754 1.40081 3.79917 1.04917C4.15081 0.697544 4.62772 0.5 5.125 0.5H11.375ZM11.375 1.75H5.125C4.95924 1.75 4.80027 1.81585 4.68306 1.93306C4.56585 2.05027 4.5 2.20924 4.5 2.375V11.125C4.5 11.2908 4.56585 11.4497 4.68306 11.5669C4.80027 11.6842 4.95924 11.75 5.125 11.75H11.375C11.5408 11.75 11.6997 11.6842 11.8169 11.5669C11.9342 11.4497 12 11.2908 12 11.125V2.375C12 2.20924 11.9342 2.05027 11.8169 1.93306C11.6997 1.81585 11.5408 1.75 11.375 1.75Z" fill="white"/>
</svg>
